<svg width="516" height="271" viewBox="0 0 516 271" xmlns="http://www.w3.org/2000/svg"><title>logo</title><g fill="#FFF" fill-rule="evenodd"><path d="M157.5 115c-.2-1-.6-2.2-.8-3.3 0-.2-.2-.4-.4-.6 0 .2-.2.4-.2.8v.6c-.2-.8-.2-1.8-.4-2.7-.4-1.8-1-3.9-1.4-5.7 0-.4-.2-.8-.2-1 0-.2-.2-.6-.2-.8-1.2-.2-.8-1.2-1-1.8-.2-1.4-.2-2.9-.8-4.1-1.2-2.9-.8-5.9-1.2-8.8-.4-2.2-.2-4.5-.4-7.1h-2.9c-4.1.2-8.4.4-12.4.6-.8 0-1.8-.4-2.9-.6-.2 0-.4-.6-.2-.8.4-1 1-2.2 2.2-2.4 2.4-.6 4.9-1 7.3-1.4 2.9-.4 5.7-.4 8.4-.6v-5.7c0-2-.2-4.1-.4-6.1-.2-1.4.8-2 1.6-2.9.8-.8 1.8-1.2 3.1-1.8.2 1.6.2 3.1.6 4.7.4 2 1 3.9 1.4 5.9.4 1.8.4 3.7.4 5.3 0 .8.2 1.2 1 1.4 3.1.8 6.1 1.4 9 2.4 2.2.8 4.3 2 6.3 3.1 1.4.8 2.9 1.4 4.3 2.2.8.4 1.6.8 2.4 1.4 2 1.4 4.3 2.4 5.9 4.3 2 2 4.1 3.9 5.5 6.1 2.7 4.5 4.7 9 4.5 14.3v6.3c0 .8 0 1.2 1 1.2 2.2.2 4.7.6 6.9 1.2 3.5 1 6.5 2.9 9 5.7l.2.2c.8 1.6 1 1.6 2.4.4.8-.6 1.4-1 2.2-1.6.2 0 .2.2.4.2-.2 2-.6 3.9-.8 5.9-.4 2.7-.8 5.3-1.2 7.7-.2 1.8-.2 3.7 0 5.7.2 1.2.8 2.7 1.2 3.9 0 .2.4.4.6.4.2 0 .4-.4.6-.6 1-2.4 2-5.1 3.1-7.5 2-5.3 3.9-10.8 5.9-16.1.8-2 1.4-4.1 2.4-5.9.4-.8 1.4-1.4 2.2-1.8 1.2-.8 2.4-1.4 3.9-2 0 1.2.2 2.2.2 3.3v10.4c0 1.6.2 3.3-.4 4.7-.6 1.6-.6 3.1-.8 4.7-.2 1.2 0 2.4 0 3.9.2-.2.4-.2.4-.2 2.7-6.7 6.1-13.1 10.2-19.2 1.4-2 3.1-3.7 5.3-4.7 1.2-.6 2.4-1.2 3.7-1.8.8.8.8 1.8.8 2.9 0 3.1.2 6.1.2 9 0 1.4 0 2.9-.2 4.3-.2.8-.6 1.8-.8 2.9-.2 2.2-.4 4.5-.6 6.7v8.8c0 1 .2 1.8.4 2.9.2.4.6.8.8 1.2h.4c.4-.8.6-1.6 1-2.4 1-3.1 2-6.3 3.1-9.4 1.4-4.1 3.9-7.7 6.3-11.2 1.4-2 2.9-4.1 4.5-6.1 2-2.2 4.5-3.9 7.1-5.1 1-.4 2-1 3.1-1.2.8-.2 1.4 0 1.4 1 .2 1.2.2 2.4.4 3.7 0 .6-.2 1.4.6 1.8.2 0 0 .6 0 .8-.6 3.1-.8 6.1-.2 9.2 0 .2 0 .6-.2.8-.2.8-.4 1.6-.4 2.2 0 1.4.2 2.9-.2 4.5-.2.8 0 1.8.2 2.7.2 2.4.4 5.1.8 7.5 0 .2.2.4.2.8 1.4-.8 2.9-1.4 4.3-2 1.2-.6 2.7-1.2 3.9-2 .2-.2.4-.4.4-.8 0-1.2.2-2.2.2-3.5-.2-5.3 1-10.4 2.7-15.3 1-2.9 2.9-4.9 5.5-6.1 1.4-.6 2.9-1.2 4.3-1.6 1.6-.4 3.1 0 4.3 1.2.8 1 1.6 2.2 2.4 3.3 1.4 2.2 1.8 4.7 2.2 7.3.4 2.4-.6 4.5-2.2 6.1-1.8 1.6-4.1 3.3-6.3 4.7-2 1.2-4.1 2.4-6.1 3.7-.4.2-.6 1-1 1.6 0-1.2.2-2.2.2-3.5 0-.4.4-.6.8-.8 1.4-1 3.1-1.8 4.3-2.7 1.4-1 2-2.4 2-4.3 0-3.1-1-5.7-2.4-8.4-.2-.4-.6-.8-1-1.2-.2.6-.4 1-.6 1.4-.4 1-.8 1.8-1.2 2.9 0 .2-.2.2-.2.4.2 2-1.2 3.7-1.4 5.7 0 2-.6 4.1-.8 6.1-.2 2.9-.2 5.5-.2 8.4 0 2 1.2 3.9 2.4 5.5s2.9 2 4.7 2c2.2 0 3.9-1 5.1-2.9 1.8-2.7 3.3-5.5 4.3-8.6.4-1.6 1-3.1 1.4-4.7.2-1 .8-1.6 1.8-2 1.2-.6 2.4-1 3.5-1.8.6-.4.8-1.4 1-2.2 1.2-3.5 2.2-6.9 4.1-10 2-3.5 4.3-6.7 7.7-9 2-1.4 4.5-2.2 6.9-2.7 3.5-.6 6.1.6 8.4 3.1 1.2 1.4 2.2 2.7 3.1 4.5.4 1 .2 1.6-.8 2-1 .6-2.2 1-3.3 1.4-.6.4-1.4.6-2 1-.6.4-1 .2-1.4-.4-1.6-2.4-3.7-4.7-5.9-6.3-1-.8-1.4-.8-2.2.2-2.7 3.3-4.5 6.7-5.7 10.6-.6 2.2-1 4.5-1.6 6.7-1.4 5.1-1.4 10.2-1.4 15.3 0 1.8 0 3.7.4 5.5.2.8-.2 1.4-.8 1.6-2 1-3.9 2.2-5.9 3.3-.6-2-1.2-3.7-2-5.5-.6-1.6-.6-3.7-1.6-4.9-1 .8-1.8 1.6-2.9 2.4-2.2 2.2-4.9 3.9-7.5 5.3-1.8 1-3.5 1.6-5.5 2.2-2.9.6-5.5-.6-6.9-2.9-1.2-1.6-1.6-3.7-1.8-5.9-.2-1.6-.4-3.3-.8-5.1-.8.4-1.2.6-1.8.8-1.6 1-3.5 1.8-5.1 2.9-.8.4-1.2 1-1 2 .2 2.4.6 4.7.8 7.1.2 3.9.2 7.7.4 11.8.2 5.9-.6 11.4-2.2 17.1-.6 2.4-1.6 4.9-3.3 6.9-.2.2-.2.4-.2.4-.2 0-.2-.2-.2-.2.2-.4.4-1 .6-1.4.2-1 .6-2 .8-3.1.4-1.6.6-3.5.8-5.1.2-2.4.2-4.9.4-7.1v-1.4c-.4-3.3-.6-6.7-1-10-.4-2.7-1.4-5.3-1.8-8-.2-1.2-.4-2.7-.4-4.1 0-.2-.2-.6-.4-1-1.8 1.4-3.7 2.9-5.3 4.3-2 2-3.9 4.1-5.7 6.1-1.8 2.4-3.5 4.9-4.9 7.5-1.6 2.9-2.9 5.9-4.1 9-1 2.7-1.6 5.3-2 8.2-.6 3.9-.2 7.7 1.6 11 2.2 4.3 5.5 5.7 10.4 4.7 1.2-.2 2.4-.6 3.7-.8-1.6 1.2-3.5 2.2-5.5 2.9-2.2.6-4.3.4-6.5-.2-2.4-.8-4.1-2.9-5.3-5.1-.6-1-1.4-2-1.6-3.3-.4-1.4-.6-2.9-.6-4.5 0-5.1 1.4-10 3.1-14.7 1.4-4.1 3.7-8 6.1-11.6 4.1-6.5 9.8-11.2 15.9-15.7.2-.2.6-.8.4-1-.4-2.2-1-4.5-1.6-6.7 0-.2 0-.2-.2-.6-.6.8-1 1.6-1.6 2.4-1.2 1.8-2.4 3.5-4.7 4.5-1 .4-1.8 1-2.7 1.4-1.6.8-3.7 0-4.3-1.8-.2-.8-.2-1.8-.4-2.9 0-.4-.2-.6-.4-1-.6 1.2-1 2.4-1.6 3.3-.8 1.2-1.8 2.2-3.3 2.9-1.2.4-2.2 1.4-3.5 1.8-1.8.8-2.7.2-3.3-1.4-1.2-2.9-2-5.9-2.2-9-.2-2.4 0-5.1 0-7.7 0-3.3.2-6.3.4-9.6 0-1.8 0-3.9.2-5.7v-.6s-.2 0-.2-.2c-.4.8-1 1.6-1.6 2.7-1.8 3.9-3.3 8-4.1 12-1 4.3-1.8 8.8-2.9 13.1-.4 1.6-.4 3.5-1.8 4.7-1.2 1-2.4 2-3.9 2.9-.8.6-1.8.8-2.7 1.2-.6.2-.8 0-1-.4-1.2-2.7-1.4-5.5-1.4-8.4-.2-4.5-.4-9.2-.6-13.7 0-.4-.2-.6-.4-1.2-1 2.4-2 4.7-3.3 6.9-1.2 2.7-3.1 4.7-5.3 6.3-1.4 1-2.7 2.4-4.1 3.5-1.6 1.2-3.5.8-4.7-.8-1-1.4-1.2-3.3-1.6-5.1 0-.4-.4-.6-.4-1-.2.2-.8.4-1 .6-1.6 2.2-3.3 4.5-5.1 6.5-1.4 1.6-2.9 3.1-5.1 3.7-2 .4-3.7-.4-4.1-2.2-.6-2.7-.4-5.5-.2-8.2.4-5.3 1.8-10.2 3.5-15.1.6-1.6 1.2-3.3 2-4.7.4-.8.2-1-.6-1.2-1-.2-1.8-.4-2.9-.6-.8-.2-1.4.2-1.6 1-1.6 4.1-3.3 8.2-5.1 12-1.4 2.9-3.1 5.3-4.9 8-1.4 2-2.9 3.9-4.3 5.9-2.4 3.3-5.3 5.9-8.6 8.2-2.4 1.8-4.9 3.5-7.7 4.5-4.5 1.8-8.8 1.8-12.8-1-1.8-1.2-2.7-2.9-3.3-4.9-1.2-3.9-.2-7.3 1-11 1.8-5.3 4.5-10 8.2-14.3 1-1 2-2 2.9-3.1.2-.2.4-.6.4-1 0-1.2-.2-2.2-.4-3.5-.2-2.4-.4-5.1-.6-7.5 0-.8-.2-1.4-.4-2-.5-.1-.7-1.2-.5-2.2 0 1.2.2 2.4.2 3.7.4 2.4.6 4.9 1.2 7.3.4 1.4 0 3.3 1.4 4.5 8.8-7.1 18.6-11.6 30.2-12.2-.2-1.8-.6-3.3-.8-4.9-.6-3.7-2.2-7.1-4.3-10.4-3.3-5.3-7.7-9.4-12.8-13.1-4.3-3.1-9-5.7-13.9-7.3-.6-.2-1-.2-1.4-.2v11.2h-.2c-.2-2-.2-4.3-.4-6.3h-.4v2c0 1.8-.2 3.7-.2 5.7.2 3.3.4 6.3.6 9.6.2 1.6.2 3.1.2 4.7.2 1.6.4 3.7.6 5.7zm2.2 22.7c-.2 0-.2-.2-.4-.2-1 1.2-2 2.4-3.1 3.5-2.4 2.7-4.3 5.7-5.7 9.2-.8 2 .2 3.9 1.2 5.3 1.6 2 4.1 3.1 6.9 3.1 2.7 0 4.9-.8 7.3-1.6 3.3-1 6.1-2.7 8.8-4.9 1.2-1 2.4-2 3.7-3.1.4-.2.8-.6 1.2-1 .8-1 1.6-2.2 2.4-3.7 1.2-1.8 2.7-3.5 3.7-5.3 2-3.5 2.9-7.3 3.9-11.2.2-1.2.2-1.4-1.2-1.2-2.9.2-5.7.4-8.6 1-2.2.4-4.3 1.2-6.5 2-3.9 1.4-7.5 3.5-11 5.9-.2.2-.6.8-.6.8-.6-.2-.8.2-.8.6 0 .4-.4 1.2.6 1.6.2 0 .4.8.2 1-.2.4-.6.6-1 1-.2-1.2-.6-2-1-2.8zm42-9c-.2 0-.2.2-.4.2-.2.4-.4.8-.4 1.4-.4 1.8-1 3.7-1.2 5.5-.6 3.1-1 6.3-1.2 9.4-.2 1.2 0 2.4.2 3.7.2 1 1.4 1.8 2.2 1.8 1.2 0 2.7-.6 3.1-1.4 1-2.7 2.2-5.1 3.3-7.7a139 139 0 0 0 1.6-4.5c-.6-.6-1-.8-1.4-1.2-.8-1-1.4-2.4-2.2-3.5-1.1-1.5-2.4-2.5-3.6-3.7zm66.7 24.1c.8-2 1.6-3.9 2-5.9 1.2-4.9 2.4-9.8 3.7-14.7.4-1.4-.2-2.9-.6-4.5-2.2 3.3-3.5 6.7-4.7 10.2.2-1 .4-1.8.6-2.9h-.2c-.2.2-.2.6-.4.8-.2.4-.2.6-.2 1-1.4 3.9-2.2 8-2.2 12 0 1.7.8 2.7 2 4zM507.8 143.4c-.4-.2-.6-.2-.8-.2-.6-.2-.8-.8-.4-1.2 1-.6 1.8-1.4 2.9-1.6 1.4-.4 3.1-.8 4.5-.8s1.8.8 1 2c-1.6 2.9-4.3 4.5-6.5 6.5-2.2 1.8-4.3 3.7-6.7 5.3-2.4 1.8-5.1 3.5-8 5.1-3.1 1.6-6.3 2.9-9.6 4.3-.6.2-.8.6-.6 1.2.8 6.1-1 11.6-5.1 16.3-1.4 1.6-3.3 2.4-5.1 3.7-.4.4-1 .6-1.4 1-3.3 3.1-10.2 3.1-13.7.6l-.2-.2c-1.2-1-1.4-1.2-2.4.2-1.6 2-3.9 3.3-6.1 4.5-.8.4-1.6 1-2.7 1.2-2 .8-3.9 0-4.7-2-.6-1.4-1-3.1-1-4.5-.2-2.7 0-5.3.2-8 0-.2 0-.6-.2-1.2-1 1.2-1.8 2.2-2.9 3.1-1.8 1.6-3.7 3.1-5.3 4.7-1 1-2.2 2-3.5 2.9-3.3 1.6-6.7 2.7-10.2.8-2.2-1.2-3.3-3.3-3.3-5.7v-2c-.6.4-1.2.8-1.6 1-2.7 1.8-5.7 3.5-9 3.5-1.6 0-3.7-1.6-4.3-3.1-1-2.7-.8-5.5-.4-8.2.4-3.1 1.4-5.9 3.5-8.4.8-1 1.6-1.6 2.4-2.7 1.2-1.2 1.8-2.9 1.6-4.7 0-.8-.4-1.4-1.2-1.8-1.8-1-3.9-1.2-5.9-1.2-.2 0-.8.2-.8.6-1.8 4.9-4.9 9-8.4 12.8-3.5 3.7-7.1 7.3-10.8 10.8-2.9 2.7-6.1 4.7-10 5.5-5.1.8-9.4-1.4-11.2-6.3-1.4-3.9-2.4-8-2.4-12 0-1.8-.2-3.5-.2-5.3.2-3.9.6-7.5 1.2-11.4.4-2.9 1.2-5.7 1.8-8.6 1.8-6.3 4.3-12.4 7.5-18.1 2-3.7 4.3-7.1 6.9-10.4 3.9-4.9 8.6-9 14.5-11.6 2.2-1 4.7-1.2 7.1-.8 2.4.4 4.1 1.6 5.3 3.5 1.8 2.7 2.4 5.7 1.6 9-.6 2.9-1.6 5.5-3.5 7.7-.4.4-.8 1-1.2 1.2-1.2.6-2.4 1.2-3.9 1.8.2-.6.4-1.2.6-1.6.8-1.6 1-3.3 1-5.1-.2-2.9-.2-5.7-1.4-8.4-1.6-3.7-4.7-4.5-8.4-3.1-4.1 1.8-6.7 4.9-9.2 8.6-1.8 2.9-3.7 5.9-5.1 9-1.6 3.5-2.9 7.1-4.3 10.6-.6 1.2-1 2.7-1.6 3.9-.2.6-.4 1.4-.6 2 0 .6 0 1.2-.6 1.6-.2.2 0 1 0 1.2-.2.4-.6.6-.6.8-.4 3.3-1 6.5-1.4 9.8-.2 2.9-.2 5.9-.2 8.8 0 3.7 1 7.1 2.4 10.4 1.4 3.7 4.3 5.7 8.2 6.3 2.2.2 4.5-.2 6.7-1.2 3.7-1.8 5.9-5.1 8.4-8.4 1.8-2.7 3.3-5.5 4.9-8.2 1-1.8 0-3.9-2-4.7-2.2-1-2.2-2-.4-3.5 1.4-1.2 3.3-2.2 4.9-3.3.4-.2.8-.2 1.2-.2h6.3c3.9-.2 7.5-.2 11.2 1.8 1.4.8 1.8 2.2 1.6 3.9-.6 3.1-2.7 5.3-4.9 7.5-1.2 1.2-1.8 2.9-2.4 4.5-1 2.4-1.4 5.1-1.2 7.7.4 3.7 2 5.3 5.9 4.3 1.2-.4 2.4-1 3.7-1.6.4-.2.6-.8.6-1.2 1.2-4.7 3.1-9.2 5.7-13.3 1.4-2.2 3.7-3.7 5.7-5.1 1-.6 2-.8 3.1-1.2.6-.2 1.2 0 1.6.4 1.4 1 1.6 2.2 1 3.9-2.2 4.9-5.5 9-9.4 12.4-2.2 2-2.9 4.3-2.2 7.1.4 2 1.8 3.3 3.9 3.5 1.2 0 2.4.2 3.7 0 .8-.2 1.6-.8 2.2-1.4 2.7-3.3 5.1-6.7 7.7-10.2.8-1.2 1.6-2.4 2.4-3.7.4-1 .8-2 1-3.1.4-1.6 1.4-2.7 2.9-3.3 1.4-.8 2.9-1.6 4.9-1.6 0 .4 0 .8-.2 1.2-.6 2.7-1.4 5.3-2 8-.4 2-.6 4.1-1 6.1-.2.8-.4 1.4-.6 2-.2.4-.4.8.2 1v.6c0 1.8-.2 3.7-.2 5.5 0 1 .6 1.8 1 2.9.4.8 1.2.8 1.8 0 1.2-1.8 2.2-3.7 3.3-5.7.8-1.4 1.6-3.1 2.7-4.3 1.2-1.2 2.9-2 4.3-3.1.2-.2.4-.2.8-.2.6-.2 1.4-.4 1.6-.2.4.6.6 1.4.4 2-.6 2.2 0 4.3 1.2 6.1.4.8 1.6 1.2 2.4 1.4 1.2.4 2.4.4 3.7.4.6 0 1.2-.4 1.4-1 2.9-3.9 3.7-8.4 3.5-13.1-.2-2-.8-3.9-1.6-5.7 0-.2-.2-.2-.2-.4-1-1.2-.8-2.9.8-3.7 1.4-.8 2.9-1.4 4.3-2.2.8-.4 1.4-.2 2 .4 1 1.2 2.4 1.6 3.9 1.8 3.1.4 5.7-.6 8.2-2.2 4.9-3.3 9.4-7.1 13.5-11.2-.1-1.2.1-1.4.5-1.8zM101.6 106.9l.6 1.2c1.2 1.6 2.4 1.4 3.9.8 1.2-.6 2-1.6 2.7-2.9.2-.6-.2-2-.8-2.7-.6-.6-1.2-1.2-1.6-1.8-1.4-2.7-2.7-5.3-3.3-8.2-.6-3.5 0-6.3 2.2-9 1-1 2-2.2 2.9-3.3 2-2.7 4.7-1.4 5.9.4 1.8 2.9 2.2 5.9 1.8 9.2-.2 2.2-.8 4.5-1 6.7 0 .8.2 1.4.2 2.2-2.4-2.2-3.5-5.3-4.9-8.2-.2 0-.2 0-.2.2.2.8.2 1.6.6 2.2.6 1.6 1 3.3 1.8 4.7 1.2 2.2 2.9 3.7 5.1 4.9 2 1 3.9 2.2 6.1 2.7 1.2.2 2.4 0 3.7-.2 1.3-.2 2.4-.6 3.7-1.2.8-.4 1.6-1 2.4-1.6.2 0 .2-.2.4 0-.4.6-.8 1.4-1.4 1.8-.8.8-1.6 1.6-2.7 2-1.2.8-2.7 1.4-4.1 2-.6.4-1.4.6-2 .8-1.8.6-3.7-.2-5.3-.6-1.4-.4-2.9-.6-4.1-1-1-.2-1.8-.8-2.7-1.2-.2-.2-.6-.2-.8-.4-.8 1-1.6 2-2.2 3.1-1.4 1.8-2.7 3.9-4.3 5.7-.4.6-1 1-1.6 1.2-1.8 1.2-3.7 1-4.9-1-.8-1.4-1.6-3.1-2-4.7-1.2-4.3-2-8.6-3.5-12.6-.8-2.4-2-4.7-3.1-7.1-.2-.6-.8-1-1.4-1.4-.2 0-.2 0-.4.2-.2 1.2-.4 2.7-.2 4.1.2 3.3.2 6.7.8 10 .4 2.2-.6 3.7-1.6 5.3-.6 1.2-1.4 2.2-2.2 3.7-.6-1-1.4-1.8-1.6-2.9-1-3.7-1.2-7.1-.8-10.8.2-2.2-.2-4.3-.4-6.5-.4-3.5-.6-6.9-1-10.6-.6-4.9-1.2-9.6-2-14.5-.4-2-.8-3.9-1-5.9-.2-1 0-2.2.6-3.3 1-1.6 2.4-3.1 3.9-4.7 1-1 1.8-.8 2.2.6.4 2.4.8 4.9 1.2 7.1.4 2.2.6 4.5.8 6.7.2 3.1.2 6.1.4 9.2.2 2.4.4 4.9.6 7.3.4-.2.6-.4.8-.6 1-1 1.8-2.2 2.9-3.3 1.4-1.4 3.1-1.4 4.5.2 1.6 2 2.7 4.5 3.3 6.9.8 3.5 1.4 6.9 2.2 10.6.2.8.2 1.8.4 2.7 0-.2-.2-.2-.2-.4-.6-2.9-1.2-5.7-1.8-8.4-.2-.6-.2-1-.4-1.6h-.2c0 .4.2.8.2 1.4.8 3.7 1.4 7.3 2.2 11 .2 1 .6 2 1 2.9-.7 1.5-.7 1.5-.3.9zM84.9 70.2h-.4l.6 16.5h.2c.2-.2.4-.6.4-.8v-2c0-1 .2-1.8 0-2.9 0-2.7-.2-5.3-.4-8 .2-.8-.2-1.8-.4-2.8zM55.7 99.9c-.2 1.2-.4 2.2-.6 3.3-.2 1.8-.2 3.5 0 5.3.4 2.7 2.4 4.1 4.7 5.1 1.6.8 3.5.6 5.1-.4.8-.4 1.2-1.2 1.4-2.2.4-2.2.6-4.5.8-6.5.2-3.7.4-7.5.4-11.2 0-4.9-.2-10-.4-14.9 0-1.6-.4-3.3-.8-4.9-.6-3.7-1.2-7.1-2-10.6-.2-1.2-1-2.4-1.6-3.7 0 0-.6 0-.8.2-.6.8-1.2 1.6-2 2.2-.8.8-1.6 1.4-2.9 1.2-.2 0-.4 0-.6.2-1.4 1-2 .8-2.9-.6-1-1.4-2-2.9-3.1-4.3l-1.2-1.2c-1.6-1.2-3.1-2.7-4.9-3.7-1.2-.8-2.9-1.4-4.5-1.6-3.1-.2-5.9-.2-9 .2-3.3.4-6.3 1.8-8.8 4.3-2.7 2.7-4.9 5.3-6.5 8.6-2 4.3-3.1 8.8-2.2 13.5.6 4.3 4.3 7.3 8.6 7.5 3.5.2 6.5-.8 9.6-2 1.2-.4 2.2-1 3.3-1.4.4-.2 1-.2 1.6-.2-.6 1-1.6 1.6-2.7 2-1.8.6-3.7 1.4-5.5 1.8-1.8.4-3.7 1-5.3 1.2-2.7.4-5.1-.2-7.7-1-3.7-1.2-4.5-4.1-5.1-7.3-1-6.7 1.2-12.4 5.3-17.5 2.9-3.7 6.3-7.1 10.4-9.6 2.7-1.6 5.5-2.7 8.6-3.1 3.1-.4 5.9-.2 8.8.8 2.2.8 4.5 1.6 6.1 3.7 1.6 2.2 3.5 4.3 5.1 6.3.6.8 1.4 1.4 2.2 2 .4.4 1.6 0 1.8-.6.8-1.2 1.4-2.4 2-3.9.2-.6.4-1.4.2-2.2-.4-1.4 0-2.7.8-3.7 1.6-1.6 3.3-3.3 4.7-4.9.6-.6 1.2-.6 1.8.2 1.2 2 1.8 4.3 2.2 6.5 1 4.3 1.4 8.8 1.6 13.1 0 1.8 0 3.9.2 5.7 0 .8.2 1.4.2 2.2l-1.2-15.3h-.4v1.8c.2 3.7.2 7.1.4 10.8 0 1.8.2 3.7.2 5.7 0 2.2-.2 4.5-.4 6.9v2.9c0 4.7-.4 9.4-1.2 14.1-.4 1.8-.8 3.7-1.2 5.7-.2.6 0 1 .2 1.6 1.8-5.1 2.7-10.4 3.1-15.9h.2c-.4 3.1-.8 5.9-1.2 9-.2 2.4-.8 5.1-1.8 7.3-.8 1.8-1.8 3.5-2.9 5.3-.6 1-1.4 2.2-2.2 3.1-1.6 1.8-3.7 3.1-6.3 2.2-2.2-.6-4.5-1-6.3-2.9-.4-.4-.8-.8-.8-1.2-.8-2.7-.6-5.3.2-8 .8-2.9 2.4-4.9 4.1-7.1.3.1.9-.3 1.1.1zM72.4 81.2v6.3-6.3z"/><path d="M101 105.8c-.4-1.2-.6-2.7-1-3.9.4 1.3.8 2.5 1 3.9z"/><g><path d="M159.1 33c-.5.3-1 .5-1.5.8-.1.1-.3.1-.5 0-1.8-.4-3.7-.8-5.5-1.2-2.8-.7-5.6-1.5-8.3-2.5-.9-.3-1.8-.5-2.7-.8-.4-.1-.6 0-.9.3-1.7 2.4-3.4 4.8-5.2 7.1-2.8 3.8-5.4 7.9-7.9 11.9-.6 1-1.6 1.6-2.4 2.3-.6-.4-.5-.9-.4-1.3.3-1.2.6-2.5.8-3.7.5-2.2.9-4.5 1.4-6.7.4-2 .9-3.9 1.3-5.8.2-.8.4-1.7.5-2.5.2-.7.1-.8-.6-1-1.1-.3-2.3-.5-3.4-.7-3-.4-6-.7-9-1.1-1.9-.2-3.7-.5-5.6-.8-.4 0-.6-.2-.6-.6 0-.4.1-.6.5-.7.3-.1.6-.2.8-.2 1.5-.1 2.9-.8 4.2-1.4 1.9-1 3.7-2.1 5.6-3.1 2.9-1.5 5.8-3 8.6-4.5.5-.3 1-.5 1.5-.7.3-.1.5-.1.8-.2.2-1.1.4-2.3.6-3.5.5-2.9 1-5.8 1.6-8.7l.3-1.8c.1-.5.3-.9.9-1 .1 0 .2-.1.3-.1 1-.3 1.5-.2 2.1.7.6 1 1.1 2.1 1.6 3.2.8 1.8 1.6 3.7 2.5 5.6.4.9.9 1.6 1.5 2.6.6-.3 1.2-.6 1.8-1 2.1-1.2 4.4-2.2 6.8-2.7.5-.1.9-.2 1.4-.2.2 0 .4.2.6.3.6-.4 1.5-.5 2.3-.2.5.2.6.4.4.9-.3.7-.6 1.3-1 2-1.3 2.3-2.7 4.6-4.1 7-.9 1.5-.8 1.2 0 2.5s1.8 2.5 2.7 3.8c1 1.3 1.9 2.5 2.9 3.8.9 1.2 1.9 2.3 2.9 3.5-.1.1-.1.2-.2.3 0-.2.3-.1.6.1zm-27.5-16.8c-.2 0-.4 0-.6.1v.2c.2 0 .4-.1.6-.1-.3 1.2-.5 1.4-1.4 1.4v-.9c-5.9 2.8-11.4 5.9-17.2 9 1.6.2 2.9.4 4.2.5 3.6.3 7.1.8 10.7 1.5.9.2 1.7.4 2.5 1-.3 2.7-1.2 5.3-1.8 8-.6 2.7-1.1 5.3-1.7 8 .2 0 .3-.1.3-.2.6-1 1.2-2 1.9-3 2.3-3.3 4.6-6.6 7-9.9.8-1.1 1.5-2.1 2.2-3.2.4-.6 1.1-.8 1.8-.6.3.1.5.1.8 0 .2-.1.5 0 .7 0 .6.1 1.1.3 1.7.4 2.9.9 5.8 1.8 8.6 2.7 1 .3 1.9.6 3.1.5-.3-.3-.4-.6-.7-.9-2-2.4-3.9-4.9-5.9-7.3-.6-.7-1.1-1.5-1.6-2.3-.4-.6-.2-.9.5-1.2.2-.1.3-.1.6-.3-.4-.1-.7-.1-.9-.1 1.7-3.2 3.6-6.2 5-9.5-.5 0-.9 0-1.3.1-2.1.7-4.2 1.6-6.1 2.7-1.2.7-2.6.9-3.9 1.1h-.9c-.4-.7.4-.8.5-1.1-.6-.3-.8.3-1.2.5-.3-.5-.6-.9-.8-1.3-1.1-2.2-2.1-4.4-3.1-6.6-.1-.2-.1-.6-.5-.6-.9 3.4-1.7 6.8-2.6 10.2.2.3.8.1.8.6-.4.2-.9.4-1.3.6zm9.3-3.8c.3.3.3.3.6 0h-.6z" fill-opacity=".307"/><path d="M308.5 64.7c-1-.5-1.9-.8-2.8-1.3-1-.5-2-1.1-3-1.6-.4-.2-.4-.5-.1-.8.5-.5 1.1-.9 1.7-1.2.2-.1.6-.2.9-.1 1 .1 2-.1 3-.3 1.5-.3 2.9-.4 4.4-.6.4-.1.9 0 1.4 0-.2.5-.4 1.1-.7 1.8-1.7.2-3.5.4-5.3.6v.2c.9.7 2.1.7 3 1.5l-1.8 4.2c-1.2 3.2-2.5 6.3-3.7 9.5-.2.4-.3.8-.4 1.2-.1.3 0 .6 0 1.1.4-.3.6-.5.9-.7 1.8-1.7 3.5-3.4 5.3-5.1l3.6-3.6c.8-.8 1.8-1.4 2.6-2.1 2.2.3 4.7 2.6 8 5.1v-.8c-.4-1.6-.8-3.2-1.3-4.8-.4-1.3-.5-2.6-.3-3.9 0-.3.2-.6.5-.7.5-.4 1.1-.8 1.7-1.2.2-.3.3-.7.5-1 .8-1.2 1.7-2.4 2.6-3.7h-.7c-1.2.4-2.3.8-3.5 1.2-1.2.4-2.5.6-3.8.9-.4.1-.9-.1-1.1-.4-.6-.7-1.1-1.5-1.3-2.3-.2-.7-.4-1.4-.7-2.1-.1-.3-.3-.7-.5-1.1-.1.3-.2.5-.3.7-.3 1.4-.7 2.8-1 4.2 0 .2-.1.4-.1.6.1.5-.2.8-.5 1-.6.4-1.2.8-1.9 1.2.1-1 1.1-1.3 1.5-2-.3 0-.6-.1-1-.1 0-.3-.1-.7 0-1.1.5-2.3 1.1-4.5 1.6-6.8.1-.5.3-.8.7-1 .5-.3 1.1-.6 1.7-.9 1.3 1.3 2 2.9 2.6 4.6.3 1 .8 2 1.2 3 .2.4.5.6 1 .6s.9 0 1.3-.1c1.6-.4 3.2-1 4.8-1.3 1-.2 2-.4 3-.7 0 0 .1 0 .2.1l-2.1 2.7c-1.1 1.4-2.2 2.8-3.6 3.9-.2.1-.3.4-.3.6 0 .9-.1 1.9.1 2.8.5 2.7 1.2 5.4 1.8 8.2.1.6.2 1.3.2 1.9 0 .1 0 .3.1.4.4.7.2 1.2-.4 1.6-.5.4-.9.8-1.4 1.3l-1-1c-1.7-2-3.9-3.3-6.1-4.8-.9-.7-1.9-1.3-2.9-1.9-.4-.2-.7-.5-.5-1.1-1.9 1.4-3.4 3.2-5.1 4.8-1.9 1.9-3.8 3.8-5.8 5.6-.7.6-1.5 1.1-2.2 1.5-.3.2-.6 0-.7-.3 0-.3 0-.6.1-.8.5-1.8 1-3.6 1.7-5.4 1.1-3 2.3-6 3.5-9 .4-.3.5-.5.7-.9zm8.2 4l.2.2c.1-.1.2-.3.4-.4l-.2-.2-.4.4zM360 71.5c-.5.8-1.1 1.3-1.8 1.9-.8.7-1.7 1.3-2.5 2-.4.4-.8.8-1.2 1.1-.2.2-.2.4-.1.6.8 1.8 1.1 3.8 1.5 5.8.2 1.1.5 2.1.9 3.1.1.3.1.6-.1.8l-.9 1.2c-.2-.2-.5-.4-.6-.6-.6-.8-1.5-1.4-2.3-2-.9-.7-1.8-1.4-2.8-2.1-.9-.6-1.8-1-2.7-1.5-.1-.1-.3-.1-.4 0-1.3.2-2.4.6-3.4 1.3l-2.7 2.1c-.3.2-.6.5-1.1.4l-.1-.1V85.2c1-2.1 1.9-4.1 2.9-6.2.3-.6.7-1.1 1-1.6 0-.1 0-.1-.1-.1-1.5-.7-2.7-2-4-3-.5-.4-.5-.5 0-1 .1-.1.2-.3.4-.4.4-.3.8-.6 1.5-.4.9.2 1.8.2 2.8-.1.7-.2 1.5-.3 2.3-.1-.1-1.8.9-3.3 1.3-4.9 0-.2.2-.4.4-.5.2-.2.4-.3.6-.4.8-.6 1.1-.6 1.6.2.4.5.9 1.6 1.6 2.8.2.4.4.9.6 1.3.1.3.4.5.8.5 1.8.1 3.7.1 5.5-.2.4-.1.9-.1 1.3-.1-.2.4-.2.4-.2.5zM354.4 84c-.2-1.9-.7-3.6-1.5-5.2-.3-.6-.3-.6.1-1.1 1.3-1.4 2.6-2.9 4.2-4 .3-.2.5-.5.8-.7l-.1-.1c-2.3.1-4.5.6-6.8.2-.7-1.5-1.4-2.9-2.4-4.4-.5.9-.7 1.9-1.1 2.8-.1.3-.3.5-.5.7-.1.2-.3.3-.5.4.3.4.3.8 0 1.2-.3.4-.7.4-1.1.3-.2 0-.4-.1-.7-.1-.8-.1-1.6 0-2.5.4.8.9 1.8 1.3 2.7 2-.1.7-.5 1.1-.9 1.6-.6.7-1 1.4-1.4 2.3-.3.7-.7 1.5-1 2.2-.2.4-.3.8-.5 1.2.3 0 .5-.2.7-.3.6-.5 1.2-.9 1.8-1.4 1.1-.7 2.2-1.3 3.5-1.5.2 0 .5 0 .7.1.3.1.5.4.8.5 1.5.4 2.7 1.2 3.9 2.2.3.3.8.5 1.1.7.3-.1.5-.1.7 0zM209.8 62.4c.3-.4.6-.8 1-1 .1-.1.3-.1.4-.1.9.1 1.7-.1 2.5-.4.7-.2 1.5-.4 2.2-.6.8-1.7 1.7-3.4 3.6-4.3.4.5.6 1.2.8 1.8.3.9.6 1.7.9 2.5.1.3.3.4.6.5 1 .3 1.5.5 2.1.7.6.2 1.2.5 1.6 1-.6.5-1 1-1.8 1-.5.1-1 .3-1.6.4 0 .4 0 .7.1 1.1l.3 1.2c.2.8.3 1.7.4 2.5.1.5.2.9.3 1.4-.3.2-.6.5-1.1.8-.1-.1-.1-.2-.2-.3-.2-.3-.5-.6-.9-.8-.6-.4-1.2-.9-1.8-1.5-.6-.5-1.2-1.1-1.9-1.4-.1-.1-.2-.1-.3-.1-.5-.3-1-.2-1.4.2-.9.9-2 1.6-3.1 2.3-.6.4-1.2.8-1.9 1.1-.2.1-.4.1-.7.3.1-.2.1-.3.1-.4.1-.2.2-.4.3-.7.6-1.2 1.2-2.4 1.9-3.6.2-.4.2-.6-.1-.9-.1-.1-.3-.3-.4-.5-.8-.6-1.4-1.4-2-2.2.2.1.1.1.1 0zm3.5 3.2c-.2 0-.2 0-.4.3.2-.1.3-.2.4-.3-.1.2-.2.4-.3.5-.3.5-.6.9-.8 1.4-.3.5-.5 1-.7 1.6 1.7-1 3.3-1.9 4.7-3.1.6-.6 1.3-.6 2.1-.3.9.5 1.8 1 2.6 1.7.2.2.4.4.6.5 0-.2 0-.4-.1-.6-.4-.9-.6-1.9-.6-2.9 0-.3.1-.6.3-.7.4-.3.9-.6 1.4-.7.3-.1.6-.2 1-.3-.2-.1-.3-.1-.3-.2-.7-.2-1.5-.5-2.2-.7-.6-.2-.9-.5-1.2-1-.4-.9-.7-1.8-.8-2.8 0-.4-.1-.7-.4-1.2-.5.8-.8 1.4-1.3 2.1-.2.3-.4.6-.6.8-.5.5-1.1 1-1.6 1.4-.1.1-.2.1-.4.1-1 .2-1.9.5-2.9.9.7.8 1.6 1.3 2 2.2-.1.7-.3 1-.5 1.3z" fill-opacity=".266"/><path d="M356.2 40.2c-.6-1.5-1.2-3.1-1.8-4.9-.2.5-.4.8-.5 1.2-.4 1.2-.7 2.5-.7 3.9 0 .1 0 .3-.1.4-.4.3-.6.8-.8 1.2-.3.4-.6.8-1 1.2-.1.1-.2.1-.4.2.4-.6.8-1.1 1.2-1.7-.1 0-.2-.1-.3-.1.1-1 .3-2 .6-3 .5-1.4 1.1-2.8 1.7-4.2.1-.1.2-.3.3-.4.3-.3.7-.5 1.1-.8.4.5.8 1 1 1.5.3 1 .6 2 1 3 .1.4.3.7.5 1.1.6-.1 1.2-.3 1.7-.4.1 0 .2-.1.3-.1 1.1-.6 2.1-1.1 3.2-1.7.1.1.1.2.2.4.4-.3.9-.6 1.3-.8 0 0 .1 0 .1.1-.2.3-.3.6-.5.9-1.4 2.1-2.7 4.3-3.8 6.6-.2.4-.2.7-.1 1 .4 1.1.8 2.2 1.3 3.3l1.2 2.4c.3.6.5 1.2.8 1.7.1.3.3.5.5.8-.4.5-.8 1.1-1.2 1.7-.1-.1-.2-.1-.3-.1-.5-.6-1.1-.9-1.8-1.2-1.2-.5-2.2-1.3-3.2-2.1s-1.9-1.6-3.1-2.2c-.2-.1-.3-.5-.2-.7.2-.2.3-.5.5-.7.7 0 1.2.4 1.8.7 1.1.7 2.1 1.4 3.2 2.1.2.2.5.3.8.3-.1-.3-.3-.6-.4-.9-.3-.6-.5-1.1-.8-1.7-.3-.7-.6-1.4-.9-2.2-.1-.2-.1-.4 0-.5.4-.9.9-1.9 1.3-2.8.7-1.5 1.6-2.9 2.4-4.3.1-.2.2-.3.4-.6-.3 0-.4 0-.5.1-.8.4-1.6.7-2.3 1.2-1 .6-2.1 1-3.2 1.3h-.3c0-.1-.1-.2-.2-.2zM404.1 253.4c.4-.2.7-.5 1.3-.9 1.8 1.5 3.6 3 5.3 4.6 1.7 1.5 3.4 3.1 5.1 4.7.1-.1.3-.2.4-.3l-.6-1.5c-1.7-4.4-3.4-8.9-5-13.3-1.1-2.8-.9-3.5 1.6-5.3 2.3-1.6 4.7-3 7.1-4.5 1.1-.7 2.3-1.4 3.6-2.3-.9-.7-1.5-1.1-2.5-1.3-3.3-.6-6.5-.5-9.7.2-.9.2-1.8.2-2.4.3-.5-1-.8-1.7-1.1-2.4-.5-1.1-.9-2.3-1.4-3.4-.5-1.2-1-2.4-1.7-3.5-.4-.6-1.2-1-2.1-1.8-1.1 2.7-2.2 5.1-3 7.6-.5 1.5-1 2-3 2 0-.2-.1-.4 0-.6.9-2.7 1.9-5.4 2.8-8.1 1-3 2.9-5.2 5.9-6.5.9.1 1.3.9 1.6 1.7 1.1 2.7 2.1 5.5 3.1 8.2.4 1.2.7 2.5 1.1 3.9 1.5-.1 3 0 4.5-.3 4-.8 7.9-.5 11.7.8.6.2 1.2.2 2 .6-2.3 1.6-4.6 3.1-6.8 4.7-2.3 1.6-4.6 3.1-7 4.8.5 2.1 1.1 4.1 1.6 6.2.7 2.5 1.7 5.1 2 7.7.2 1.4.7 2.7 1 4.1.5 2 .9 4 .9 6 0 1 .6 1.9 1 3.1-.7.6-1.5 1.3-2.4 2.1l-1-1c-1.8-1.8-3.8-3.3-6.1-4.4-1.4-.7-2.6-1.7-3.8-2.7-2.2-1.9-4.4-3.9-6.7-5.9-1.5 1.1-2.8 2.1-4.2 3l-7.2 5.1c-.9.6-1.7 1.4-3.2 1.1.6-5.9 3-11.3 5.1-16.7-1.3-1.2-3-1.2-4.5-1.7-3.4-1.2-6.8-2.6-10.2-4.6 1-1.8 2.1-3.5 3.9-4.3 3.9-1.7 7.8-3.2 11.7-4.7.6-.3 1.3-.4 2.2-.7-.9 1.5-2.7 2.1-2.1 4-2.6 1.2-5 2.2-7.7 3.4 2.4 1.5 4.8 2.3 7.3 2.8 2.1.4 2.1.4 3.4 1.7-2 5.2-4.5 10.2-5.6 16.2 5.1-3.1 9.2-6.7 14-9.4-.2.5-.2 1-.2 1.5-.2.1-.5 0-.6.2-.1.2-.1.5-.2.7.1 0 .2 0 .2.1.2-.4.4-.7.6-1z" fill-opacity=".17"/><path d="M344.6 43.4c.3-.7.8-1.1 1.3-1.5 1.1.2 2.1.1 3.2-.1.7-.1 1.4-.1 2.3-.1-.4.6-.8 1.1-1.1 1.7-.7.1-1.5 0-2.4.3 1.3 1.1 2.5 2.1 3.7 3.1-1.2 2.9-2.4 5.8-3.7 8.7.7-.5 1-1.1 1.4-1.5.5-.5.8-1.1 1.3-1.7.4-.5.8-1.1 1.3-1.6.4-.6.8-1.1 1.2-1.7.4-.5.8-1.1 1.4-1.5 0 .1-.1.2-.1.3-.9 1.9-2.2 3.4-3.5 5l-3.9 5.1c-.1.1-.1.2-.2.3-.2.2-.2.2-.6-.1.5-1 .9-2 1.4-3 .9-2.1 1.7-4.3 2.6-6.4.2-.4.1-.6-.2-.8-1.4-1.2-2.8-2.4-4.1-3.6-.5-.3-.9-.6-1.3-.9zM399.4 107.7h.9v.1h-.9v-.1zM91.1 173.8c-.7-2.1-1.4-4.1-2.1-6.1 1.8-1.6 3.9-2.8 5.8-4.4-.7-.1-1.2-.1-1.9-.2.5-.4.8-.6 1.1-.8.8-.5 1.5-1.1 2.5-.9.3.1.7.2 1.1.3-.4.3-.7.7-1.1 1-1.3 1-2.6 1.9-3.9 2.8-.6.4-.8.8-.7 1.6.3 1.6.9 3.1 1.6 4.5.8 1.5 1.5 3 1.8 4.8.1.3.1.7-.1.9-.5.6-1.1 1.2-1.7 1.8-.2-.2-.4-.3-.5-.4-1-1-2.1-1.7-3.3-2.4-2.4-1.4-4.8-3-7.2-4.5-.9-.6-1.8-1.1-2.8-1.6-.5.4-1.1.8-1.7 1.2-2.4 1.8-4.8 3.5-7.5 4.8-.3.2-.7.2-1.1.2 1-2.4 2.5-4.5 4-6.7-1.1-1.3-2.1-2.6-3.2-3.8-1.1-1.2-2.3-2.4-3.4-3.7.3-.8 1.1-1.2 1.8-1.7.1-.1.4-.1.5 0 1.4.4 2.8.1 4.2.1h5.4c.9-1.5 1.9-3 2.8-4.6.9-1.5 2.1-2.6 3.8-3.2.7.9 1.2 2 1.6 3.2.3 1.2.7 2.4 1 3.6.2.6.5.8 1 .8 1 0 2.1.1 3.1.1 1 .1 2 .1 3 .6-.3.2-.4.3-.6.4-.4.2-.9.3-1.1.7-.5.7-1 .5-1.7.5-1.3-.1-2.7-.2-4-.3h-.5c-1.3-.1-1.7-.4-2.1-1.7-.3-1.2-.5-2.4-.8-3.5-.1-.6-.2-1.2-.7-1.7-.7 1.1-1.4 2-2 3.1-.5.9-.9 1.8-2.1 2.3.3.2.4.3.7.4-.5.7-1 1.3-1.6 2-2.3-.5-4.6-.8-6.9-.4 0 .5.5.7.7 1 1 1.1 2.1 2.3 3.2 3.4.3.3.3.6 0 .9-.1.1-.2.3-.4.4-1.4 1.4-2.1 3.2-3.1 4.8-.1.1-.1.3-.2.5.3-.1.5-.2.7-.3 2.6-1.4 5.1-3 7.4-4.8.8-.7 1.6-.7 2.5-.2 2.4 1.4 4.7 2.9 7.1 4.3.5.3 1 .6 1.6.9zm-12.3-11.9l-.2-.2-.7.7.2.2c.3-.2.5-.5.7-.7zm16.4.6l.2.2c.2-.2.4-.3.6-.5-.3-.1-.4 0-.6.1-.1 0-.1.2-.2.2z" fill-opacity=".17"/></g><g fill-opacity=".323"><path d="M27.4 151.4c-6.7-1.6-13.2-2-19.8-2.2 0 .1-.1.3-.1.4l.9.6c3.6 1.9 7.5 3 11.5 3.7 1.9.3 2.1.7 1.7 2.5-.4 1.5-1 2.9-1.7 4.3l-5.7 12c-.3.6-.5 1.3-.4 2.2.7-.3 1.5-.6 2.2-1 4.5-2.4 9-4.8 13.4-7.3.7-.4 1.5-.7 2.3-1.1 1.4-.7 2.7-.7 4.1-.1 1.8.8 3.7 1.3 5.4 2.1 1.3.6 2.5 1.6 3.8 2.4l6.3 4.5c.1-.1.3-.1.4-.2-.1-.5 0-1.1-.2-1.5-.8-2-1.7-4-2.4-6-.7-1.8-1.3-3.7-1.9-5.5-.8-2.8.9-4.5 2.6-6.3.4-.5 1-.7 1.8-1.2-3-1.3-5.8-2.6-8.6-3.8-.1-2.9-5.1-16.5-6.5-17.9-.3.6-.7 1.1-.9 1.7l-3.6 9.9c-.7 2.2-1.3 4.4-2 6.5-.1.4-.3.9-.5 1.2-.2.2-.7.3-1 .2-.1 0-.4-.6-.2-.8 1.8-3 1.1-6.6 2.7-9.7 1.5-2.9 2.3-6.2 3.6-9.3.9-2.2 2.3-4 4.2-5.7 1.7.8 2.7 2.2 3.2 3.8.7 2.6 1.1 5.2 1.6 7.8.5 2.4 1 4.7 1.4 7.1.1.7.4 1.2 1.1 1.5 3 1.2 5.9 2.5 8.9 3.6 1 .4 2.2.3 3.3.5.5.1.9.4 1.7.7-.9 1.4-1.6 2.8-2.5 4-.4.5-1.2.8-1.8 1-1.6.7-3.2 1.3-4.9 2 .4 1.2.6 2.1 1 3 2.5 5 3.5 10.5 4.5 16 .6 3.3.3 4.2-1.4 7.5l-1.8-1.8c-3.3-3.3-6.5-6.8-10.1-9.8-2-1.7-4.7-2.6-7.1-3.6-1.6-.7-3.1.1-4.5.9-4.1 2.2-8.1 4.5-12.1 6.7-2.7 1.5-5.5 2.6-8.5 3.5-.3.1-.6 0-1 .1-.5-1.6.3-2.9.9-4.3 2.9-5.9 5.7-11.9 8.6-17.8.1-.2.1-.4.2-.8-2.2-.6-4.5-1-6.6-1.9-2.2-.8-4.2-2-6.3-3.1-2-1.1-4.2-2.1-5.9-3.9.2-.6.4-1.1.6-1.7.4-1.4 1.4-2 2.7-2.1.8-.1 1.7-.2 2.5-.2 5.2 0 10.4 0 15.6.2 1.9.1 3.9.6 5.7 1.2 1.5.4 1.6 1 .9 2.3-.2.4-.5.8-.6 1.2-.5.6-.5 1-.7 1.8zM104.7 257.6c-1.4-3.9-2.6-7.6-4-11.3 3.3-3 7.2-5.1 10.8-8.2-1.3-.2-2.2-.3-3.6-.4.9-.7 1.4-1.1 2-1.5 1.4-.9 2.7-2 4.6-1.6.6.1 1.2.4 2.1.6-.6.6-1.3 1.3-2 1.9-2.3 1.8-4.7 3.5-7.1 5.2-1.1.7-1.6 1.4-1.3 2.9.6 2.9 1.6 5.6 2.9 8.3 1.5 2.7 2.8 5.5 3.4 8.9.1.5.1 1.3-.2 1.6-1 1.2-2.1 2.2-3.2 3.4-.5-.3-.7-.5-1-.7-1.8-1.8-3.9-3.2-6.1-4.5-4.5-2.6-8.9-5.5-13.3-8.2-1.7-1-3.4-2-5.2-3-1 .7-2.1 1.5-3.1 2.3-4.3 3.4-8.9 6.4-13.9 8.8-.6.3-1.3.4-2 .4 1.9-4.5 4.6-8.3 7.4-12.3-2-2.4-4-4.8-6-7-2-2.3-4.2-4.5-6.3-6.7.6-1.5 2-2.3 3.2-3.2.2-.2.6-.2.9-.1 2.6.8 5.2.2 7.8.2h9.9c1.7-2.8 3.5-5.6 5.2-8.4 1.6-2.7 3.8-4.7 7-5.8 1.3 1.7 2.3 3.7 2.9 5.9.6 2.2 1.3 4.4 1.9 6.6.3 1.1.9 1.5 1.9 1.5 1.9.1 3.8.1 5.7.3 1.8.1 3.6.2 5.5 1.1-.5.3-.8.6-1.1.8-.7.4-1.6.6-2 1.2-.9 1.3-1.9 1-3.1.9-2.5-.3-4.9-.3-7.4-.5h-1c-2.3-.2-3.2-.8-3.8-3.1-.6-2.1-.9-4.3-1.4-6.5-.2-1.1-.4-2.2-1.3-3.2-1.3 2-2.5 3.8-3.6 5.7-.9 1.7-1.7 3.4-3.8 4.3.5.3.8.5 1.2.8-1 1.2-1.9 2.4-2.9 3.6-4.2-.9-8.4-1.5-12.7-.8 0 .9.8 1.3 1.3 1.8 1.9 2.1 3.9 4.2 5.8 6.3.5.5.5 1 .1 1.6-.2.3-.4.5-.7.7-2.5 2.6-3.8 6-5.8 8.9-.1.2-.1.5-.3 1 .6-.2 1-.3 1.3-.5 4.8-2.6 9.3-5.5 13.6-8.8 1.6-1.2 3-1.3 4.6-.3 4.3 2.7 8.6 5.3 13 8 1.1 0 2.1.5 3.2 1.1zm-22.6-22l-.3-.3c-.4.5-.8.9-1.3 1.4.1.1.3.2.4.4.4-.6.8-1 1.2-1.5zm30.1 1.2l.3.3c.4-.3.7-.6 1.1-.9-.5-.1-.8 0-1 .2-.2.1-.3.2-.4.4zM399.4 107.7h.9v.1h-.9v-.1zM473.3 37.4c.2-.1.4-.3.6-.4.1.1.2.2.2.4-3.5 2-7.2 4-10.6 6.1-3.5 2.2-6.9 4.6-10.5 7 .3 1.5.6 3 .8 4.5.8 5.4 1.3 10.9 2.4 16.2.5 2.2-.4 3.1-1.9 3.9-.7.4-1.3.8-1.9 1.1-1-1.3-1.8-2.7-3-3.7-3.7-3-6.3-6.7-8.9-10.6-1.5-2.2-3.4-3.9-5.7-5.3-.4-.2-1-.4-1.4-.3-1.3.3-2.7.6-4 1-4.1 1.5-8.2 3.1-12.3 4.6-2 .7-4.1 1.3-6.2 1.9-.3.1-.6-.1-.9-.2.5-1.5 5.8-7.4 11.6-12.9-.5-.8-.9-1.8-1.5-2.6-1.6-2.4-3.3-4.7-4.9-7.1-.2-.3-.4-.7-.7-1.1 1.5-1.5 3.1-2.9 5.2-3.2 5-.7 9.9-1.2 15.2-1.8 1.6-2.8 3.6-5.8 5-9.1 1.1-2.7 3-3.9 5.5-4.8.4-.1.7-.2 1.2-.3 1.1.8 1.4 2.1 1.8 3.3 1.1 3 2.1 6 3.1 9 .4 1.1 0 1.9-1.1 2.3-1.2.4-2.4.9-3.8 1.4-1.4-2.8-2.1-5.9-3.5-9.2-1.6 2.4-3.1 4.5-4.5 6.6-1.5 2.1-2.9 4.2-5.3 5.5-.8-1.2-2-1.2-3.3-1-2.7.3-5.4.6-8.5 1 1 1.4 1.8 2.5 2.5 3.6.6.9 1.2 1.7 1.7 2.6.7 1.3.6 1.5-.4 2.5-2.9 3.1-5.8 6.3-8.7 9.5-.2.2-.2.4-.5.9 1.1-.3 1.9-.4 2.7-.7l14.1-4.8c1-.3 2.1-.6 3.2-.7 3.3-.3 5.5 1.7 7.5 3.8 1.5 1.6 2.6 3.4 3.9 5.1.6.9 1.1 1.9 2.4 2.6-.7-3.5-1.4-6.8-2.1-10-.3-1.5-.4-1.8 1-2.5 3.5-1.7 6.4-4.5 9.7-6.6 3-1.9 6.1-3.7 9.2-5.6.2-.1.4-.3.7-.4-.3-.8-1-.6-1.5-.6h-17.1c-.7 0-1.4-.1-2-.2 0-.3-.1-.5 0-.5 1.9-1.2 3.8-2.5 6.2-2.4 2.6.1 5.2 0 7.8.1 3.2.1 6.4.3 9.6.3 1.1.3 1.7.8 1.9 1.8-1.3-1.2-2.3-.1-3.7.8 1.6-.4 2.7-.6 3.7-.8zm-37.1-1.8c-2.5-.2-2.9.3-2.4 2.3 1.3-.2 1.7-1.2 2.4-2.3z"/></g></g></svg>