<?xml version="1.0" encoding="iso-8859-1"?>
<!DOCTYPE svg PUBLIC "-//W3C//DTD SVG 1.1//EN" "http://www.w3.org/Graphics/SVG/1.1/DTD/svg11.dtd">
<svg version="1.1" id="SouthNorthLandscape" xmlns="http://www.w3.org/2000/svg" xmlns:xlink="http://www.w3.org/1999/xlink" x="0px" y="0px" viewBox="0 0 144 144" data-reactid=".0.0" xml:space="preserve">

    <style type="text/css">
        .SouthNorth{fill:hsla(29,35%,65%,1);}
        .doorway{fill:hsla(200,0%,25%,.5);}
        .doorframe{fill:hsla(200,0%,25%,.5);}
        .top{fill:hsla(200,0%,25%,.5);}
        .mat{fill:hsla(314,5%,75%,1);}
        .counter{fill:hsla(5,25%,45%,1);}
        .table{fill:hsla(5,15%,55%,1);}
        .shadow{fill:hsla(200,95%,25%,.5);}
        .Creamer{fill:hsla(0,0%,85%,1);}
        .st20{fill:#C1B3A7}
        .st14{fill:#C1B3A7}
        .st13{fill:#EADCCE}
        .st15{fill:#B27D4D}
        .st16{fill:#4E94AF}
    </style>

    <rect class="SouthNorth" width="144" height="144" data-reactid=".0.0.0"></rect>
    <rect class="shadow" width="144" height="20" data-reactid=".0.0.1"></rect>
    <rect class="doorway" x="80" y="4" width="16" height="16" data-reactid=".0.0.2"></rect>
    <svg class="doorframe" x="80" y="4" data-reactid=".0.0.3">
        <polygon points="0,0 0,16 2,16 2,2 14,2 14,16" data-reactid=".0.0.3.0"></polygon>
        <polygon points="0,0 2,2 14,2 16,0" data-reactid=".0.0.3.1"></polygon>
    </svg>
    <svg x="80" y="128" data-reactid=".0.0.4">
        <rect class="mat" width="32" height="16" data-reactid=".0.0.4.0"></rect>
    </svg>
    <svg class="counter" x="48" y="16" data-reactid=".0.0.5">
        <polygon points="0,0 0,48 80,48 80,0 64,0 64,32 16,32 16,0" data-reactid=".0.0.5.0"></polygon>
        <svg y="44" data-reactid=".0.0.5.1">
            <rect class="shadow" width="80" height="8" data-reactid=".0.0.5.1.0"></rect>
        </svg>
    </svg>
    <svg class="table" x="0" y="32" data-reactid=".0.0.6">
        <polygon class="table" points="0,0 0,32 4,32 4,29 12,29 12,32 16,32 16,0" data-reactid=".0.0.6.0"></polygon>
        <svg y="28" data-reactid=".0.0.6.1">
            <rect class="shadow" width="16" height="8" data-reactid=".0.0.6.1.0"></rect>
        </svg>
    </svg>
    <svg class="table" x="0" y="80" data-reactid=".0.0.7">
        <polygon class="table" points="0,0 0,32 4,32 4,29 12,29 12,32 16,32 16,0" data-reactid=".0.0.7.0"></polygon>
        <svg y="28" data-reactid=".0.0.7.1">
            <rect class="shadow" width="16" height="8" data-reactid=".0.0.7.1.0"></rect>
        </svg>
    </svg>
    <svg class="table" x="32" y="80" data-reactid=".0.0.8">
        <polygon class="table" points="0,0 0,32 4,32 4,29 28,29 28,32 32,32 32,0" data-reactid=".0.0.8.0"></polygon>
        <svg y="28" data-reactid=".0.0.8.1">
            <rect class="shadow" width="32" height="8" data-reactid=".0.0.8.1.0"></rect>
        </svg>
    </svg>
    <svg class="table" x="96" y="80" data-reactid=".0.0.9">
        <polygon class="table" points="0,0 0,32 4,32 4,29 28,29 28,32 32,32 32,0" data-reactid=".0.0.9.0"></polygon>
        <svg y="28" data-reactid=".0.0.9.1">
            <rect class="shadow" width="32" height="8" data-reactid=".0.0.9.1.0"></rect>
        </svg>
    </svg>
    <svg class="table" x="16" y="128" data-reactid=".0.0.a">
        <polygon class="table" points="0,0 0,16 4,16 4,13 44,13 44,16 48,16 48,0" data-reactid=".0.0.a.0"></polygon>
        <svg y="12" data-reactid=".0.0.a.1">
            <rect class="shadow" width="48" height="8" data-reactid=".0.0.a.1.0"></rect>
        </svg>
    </svg>
    <svg x="-89" y="100" class="Creamer" data-reactid=".0.0.b">
        <path d="M133.4,38.3c-0.5-0.7-0.6-1.5-0.7-2.4c-0.1-0.6-0.1-1.4,0.5-1.8c0.2-0.1,0.5-0.2,0.6-0.4    c0.1-0.1,0.1-0.2,0.1-0.3c0-1-0.9-1.9-1.8-2c0.9,0.4,2-0.1,2.9-0.3c0.8-0.2,1.7-0.3,2.6-0.2c0.3,0.3,0,0.8-0.4,0.9    c-0.4,0.1-0.8-0.1-1.2,0c-0.4,0.1-0.8,0.3-1.2,0.5c-0.4,0.2-0.9,0.2-1.2-0.2c1.3,0.2,2.6,0,3.8-0.5c-0.2,0.5,0.1,1.2,0.5,1.6    c0.4,0.4,0.9,0.8,1.1,1.4c0.2,0.5,0.2,1,0.2,1.5c0,0.4,0,0.8,0,1.3c0,0.2,0,0.4-0.1,0.5c-0.1,0.1-0.2,0.2-0.3,0.2    c-1.7,0.7-3.6,0.6-5.2-0.1" data-reactid=".0.0.b.0"></path>
        <path d="M139.9,33.3c-0.4-0.7-1.5-0.7-2.3-0.6" data-reactid=".0.0.b.1"></path>
        <path d="M139.9,34.7c0.2-0.4,0.3-1,0-1.4" data-reactid=".0.0.b.2"></path>
        <path d="M138.9,35.8c0.3-0.3,0.7-0.7,0.9-1.1" data-reactid=".0.0.b.3"></path>
        <path d="M140,34c-1,0.3-1.4,1.4-1,1.8" data-reactid=".0.0.b.4"></path>
        <path d="M135.1,31.8c0.3,0,0.6-0.3,0.9-0.3c0.3,0,0.5,0.2,0.6,0.4s0,0.5-0.3,0.6c-0.1,0.1-0.2,0.1-0.3,0.1    c-0.2,0-0.5,0-0.7-0.2C135,32.3,135,32,135.1,31.8" data-reactid=".0.0.b.5"></path>
        <path d="M136.8,33.6c-0.1-0.6,0.7-0.9,1.3-1c0.5-0.1,1.2-0.1,1.5,0.3" data-reactid=".0.0.b.6"></path>
    </svg>
    <svg x="-80" y="92" class="Creamer" data-reactid=".0.0.c">
        <path d="M135.2,43.2c0.6-0.1,1.1-0.5,1.7-0.8c0.4-0.2,0.9-0.3,1.4-0.4c0.1,0,0.3-0.1,0.4,0c0.1,0,0.1,0.1,0.2,0.1    c0.3,0.3,0.7,0.7,1,1c0,0,0.1,0.1,0.1,0.1c0,0.1,0,0.1,0,0.2c0.1,0.9,0.3,1.9,0,2.7c-0.1,0.2-0.1,0.3-0.1,0.5c0,0.1,0,0.2,0,0.3    c0,0.2-0.1,0.3-0.3,0.4c-0.1,0.1-0.2,0.1-0.3,0.1c-0.7,0.2-1.3,0.4-2,0.6c-0.1,0-0.3,0.1-0.4,0c-0.1,0-0.2-0.1-0.3-0.1    c-0.3-0.1-0.5-0.2-0.8-0.3c-0.2-0.1-0.4-0.1-0.6-0.2c-0.2-0.1-0.4-0.1-0.6-0.1c-0.1-0.8-0.1-1.6-0.1-2.5c0-0.2,0-0.4,0.1-0.6    c0.1-0.3,0.3-0.5,0.5-0.8c0.2-0.2,0.4-0.5,0.7-0.5" data-reactid=".0.0.c.0"></path>
        <path d="M134.3,47.4c-0.5-1.5-1-3.3,0-4.6c0.3-0.3,0.6-0.6,0.8-1c0.2-0.4,0.1-0.9-0.3-1.1c-0.1-0.1-0.3-0.1-0.5-0.1    c-0.4,0-0.8,0-1.2,0c-0.1-0.5,0.6-0.5,1-0.7c0.3-0.1,0.5-0.2,0.8-0.4c1.2-0.6,2.6-0.8,3.8-0.4c0.2,0.4,0,0.9-0.4,1.2    c-0.4,0.2-0.9,0.2-1.4,0.2c-1-0.1-2.1-0.1-3.1-0.2c1.6,0,3.3-0.2,4.8-0.7c0-0.2,0-0.4,0-0.7c0.2,0.8-0.1,1.6,0,2.5    c0.1,0.8,0.8,1.7,1.6,1.4c0,1.1,0,2.2,0,3.3c0,0.3,0,0.5-0.1,0.7c-0.2,0.2-0.7,0.7-0.7,0.4C139.9,38.2,138.8,45.5,134.3,47.4    c0.5-0.2,1.3,0.4,1.9,0.5c1.3,0.4,2.8-0.4,3.4-1.7c0.6-1.2,0.3-2.8-0.6-3.9c-0.2-0.2-0.3-0.4-0.4-0.6c-0.1-0.6,0.7-0.9,1.3-1    c0.5-0.1,1.2-0.1,1.5,0.3c0.2,0.2,0.2,0.5,0.2,0.8c0,0.6,0.1,1.2-0.1,1.8c-0.2,0.6-0.7,1.1-1.3,1.1c0.3-0.3,0.7-0.7,0.9-1.1    c0.2-0.4,0.3-1,0-1.4c-0.4-0.7-1.5-0.7-2.3-0.6" data-reactid=".0.0.c.1"></path>
    </svg>
    <svg class="CoffeeCup" x="-80" data-reactid=".0.0.d">
        <ellipse class="st13" cx="135.4" cy="55.4" rx="3.3" ry="1.9" data-reactid=".0.0.d.0"></ellipse>
        <ellipse class="st14" cx="135.4" cy="53.9" rx="1.9" ry="0.9" data-reactid=".0.0.d.1"></ellipse>
        <ellipse class="st20" cx="135.4" cy="55.4" rx="2.5" ry="1.02" data-reactid=".0.0.d.2"></ellipse>
        <path class="st16" d="M136.7,55.3c0.2,0,0.3,0,0.4-0.1c0,0,0.1-0.1,0.1-0.1c0.1-0.1,0.2-0.3,0.2-0.5c0-0.1,0-0.2-0.1-0.2    c-0.2-0.2-0.3,0.2-0.3,0.3C137,54.9,136.9,55.1,136.7,55.3c-0.1,0.1-0.2,0.3-0.4,0.3c-0.1,0.1-0.3,0.1-0.5,0.2    c-0.3,0.1-0.7,0.1-1,0c-0.1,0-0.2,0-0.3-0.1c-0.1,0-0.2-0.1-0.2-0.2c-0.1-0.1-0.3-0.3-0.4-0.4c-0.1-0.1-0.3-0.3-0.3-0.4    c-0.1-0.2-0.1-0.5-0.1-0.8c0.1,0.3,0.5,0.5,0.7,0.5c0.3,0.1,0.6,0,0.9,0c0.7-0.1,1.5-0.1,2.2-0.2" data-reactid=".0.0.d.3"></path>
    </svg>
    <svg x="-96" y="81" class="CoffeeCup" data-reactid=".0.0.e">
        <ellipse class="st13" cx="133.4" cy="51.4" rx="3.3" ry="1.9" data-reactid=".0.0.e.0"></ellipse>
        <ellipse class="st14" cx="133.4" cy="49.9" rx="1.9" ry="0.9" data-reactid=".0.0.e.1"></ellipse>
        <path class="st15" d="M134.7,51.3c0.2,0,0.3,0,0.4-0.1c0,0,0.1-0.1,0.1-0.1c0.1-0.1,0.2-0.3,0.2-0.5c0-0.1,0-0.2-0.1-0.2    c-0.2-0.2-0.3,0.2-0.3,0.3C135,50.9,134.9,51.1,134.7,51.3c-0.1,0.1-0.2,0.3-0.4,0.3c-0.1,0.1-0.3,0.1-0.5,0.2    c-0.3,0.1-0.7,0.1-1,0c-0.1,0-0.2,0-0.3-0.1c-0.1,0-0.2-0.1-0.2-0.2c-0.1-0.1-0.3-0.3-0.4-0.4c-0.1-0.1-0.3-0.3-0.3-0.4    c-0.1-0.2-0.1-0.5-0.1-0.8c0.1,0.3,0.5,0.5,0.7,0.5c0.3,0.1,0.6,0,0.9,0c0.7-0.1,1.5-0.1,2.2-0.2" data-reactid=".0.0.e.2"></path>
    </svg>
    <svg x="-96" y="81" class="CoffeeCup" data-reactid=".0.0.f">
        <ellipse class="st13" cx="135.4" cy="55.4" rx="3.3" ry="1.9" data-reactid=".0.0.f.0"></ellipse>
        <ellipse class="st14" cx="135.4" cy="53.9" rx="1.9" ry="0.9" data-reactid=".0.0.f.1"></ellipse>
        <ellipse class="st20" cx="135.4" cy="55.4" rx="2.5" ry="1.02" data-reactid=".0.0.f.2"></ellipse>
        <path class="st16" d="M136.7,55.3c0.2,0,0.3,0,0.4-0.1c0,0,0.1-0.1,0.1-0.1c0.1-0.1,0.2-0.3,0.2-0.5c0-0.1,0-0.2-0.1-0.2    c-0.2-0.2-0.3,0.2-0.3,0.3C137,54.9,136.9,55.1,136.7,55.3c-0.1,0.1-0.2,0.3-0.4,0.3c-0.1,0.1-0.3,0.1-0.5,0.2    c-0.3,0.1-0.7,0.1-1,0c-0.1,0-0.2,0-0.3-0.1c-0.1,0-0.2-0.1-0.2-0.2c-0.1-0.1-0.3-0.3-0.4-0.4c-0.1-0.1-0.3-0.3-0.3-0.4    c-0.1-0.2-0.1-0.5-0.1-0.8c0.1,0.3,0.5,0.5,0.7,0.5c0.3,0.1,0.6,0,0.9,0c0.7-0.1,1.5-0.1,2.2-0.2" data-reactid=".0.0.f.3"></path>
    </svg>
    <svg x="-80" y="46" class="CoffeeCup" data-reactid=".0.0.g">
        <ellipse class="st13" cx="135.4" cy="55.4" rx="3.3" ry="1.9" data-reactid=".0.0.g.0"></ellipse>
        <ellipse class="st14" cx="135.4" cy="53.9" rx="1.9" ry="0.9" data-reactid=".0.0.g.1"></ellipse>
        <ellipse class="st20" cx="135.4" cy="55.4" rx="2.5" ry="1.02" data-reactid=".0.0.g.2"></ellipse>
        <path class="st16" d="M136.7,55.3c0.2,0,0.3,0,0.4-0.1c0,0,0.1-0.1,0.1-0.1c0.1-0.1,0.2-0.3,0.2-0.5c0-0.1,0-0.2-0.1-0.2    c-0.2-0.2-0.3,0.2-0.3,0.3C137,54.9,136.9,55.1,136.7,55.3c-0.1,0.1-0.2,0.3-0.4,0.3c-0.1,0.1-0.3,0.1-0.5,0.2    c-0.3,0.1-0.7,0.1-1,0c-0.1,0-0.2,0-0.3-0.1c-0.1,0-0.2-0.1-0.2-0.2c-0.1-0.1-0.3-0.3-0.4-0.4c-0.1-0.1-0.3-0.3-0.3-0.4    c-0.1-0.2-0.1-0.5-0.1-0.8c0.1,0.3,0.5,0.5,0.7,0.5c0.3,0.1,0.6,0,0.9,0c0.7-0.1,1.5-0.1,2.2-0.2" data-reactid=".0.0.g.3"></path>
    </svg>
    <svg x="-70" y="5" data-reactid=".0.0.h">
        <ellipse class="st13" cx="133.4" cy="51.4" rx="3.3" ry="1.9" data-reactid=".0.0.h.0"></ellipse>
        <ellipse class="st14" cx="133.4" cy="49.9" rx="1.9" ry="0.9" data-reactid=".0.0.h.1"></ellipse>
        <path fill="#554ac7" d="M134.7,51.3c0.2,0,0.3,0,0.4-0.1c0,0,0.1-0.1,0.1-0.1c0.1-0.1,0.2-0.3,0.2-0.5c0-0.1,0-0.2-0.1-0.2    c-0.2-0.2-0.3,0.2-0.3,0.3C135,50.9,134.9,51.1,134.7,51.3c-0.1,0.1-0.2,0.3-0.4,0.3c-0.1,0.1-0.3,0.1-0.5,0.2    c-0.3,0.1-0.7,0.1-1,0c-0.1,0-0.2,0-0.3-0.1c-0.1,0-0.2-0.1-0.2-0.2c-0.1-0.1-0.3-0.3-0.4-0.4c-0.1-0.1-0.3-0.3-0.3-0.4    c-0.1-0.2-0.1-0.5-0.1-0.8c0.1,0.3,0.5,0.5,0.7,0.5c0.3,0.1,0.6,0,0.9,0c0.7-0.1,1.5-0.1,2.2-0.2" data-reactid=".0.0.h.2"></path>
    </svg>
    <svg x="-93" y="32" data-reactid=".0.0.i">
        <ellipse class="st13" cx="133.4" cy="51.4" rx="3.3" ry="1.9" data-reactid=".0.0.i.0"></ellipse>
        <ellipse class="st14" cx="133.4" cy="49.9" rx="1.9" ry="0.9" data-reactid=".0.0.i.1"></ellipse>
        <path fill="#B27D4D" d="M134.7,51.3c0.2,0,0.3,0,0.4-0.1c0,0,0.1-0.1,0.1-0.1c0.1-0.1,0.2-0.3,0.2-0.5c0-0.1,0-0.2-0.1-0.2    c-0.2-0.2-0.3,0.2-0.3,0.3C135,50.9,134.9,51.1,134.7,51.3c-0.1,0.1-0.2,0.3-0.4,0.3c-0.1,0.1-0.3,0.1-0.5,0.2    c-0.3,0.1-0.7,0.1-1,0c-0.1,0-0.2,0-0.3-0.1c-0.1,0-0.2-0.1-0.2-0.2c-0.1-0.1-0.3-0.3-0.4-0.4c-0.1-0.1-0.3-0.3-0.3-0.4    c-0.1-0.2-0.1-0.5-0.1-0.8c0.1,0.3,0.5,0.5,0.7,0.5c0.3,0.1,0.6,0,0.9,0c0.7-0.1,1.5-0.1,2.2-0.2" data-reactid=".0.0.i.2"></path>
    </svg>
</svg>