<svg version="1.1" id="DrewBox" xmlns="http://www.w3.org/2000/svg" xmlns:xlink="http://www.w3.org/1999/xlink" x="0px" y="0px"
	 viewBox="0 0 64 64" xml:space="preserve">

	<style type="text/css">
		.underShirt{fill:#fff;}
		.shirt{fill:hsla(170, 65%, 55%, 1);}
		.hair{fill:hsla(51, 75%, 55%, 1);}
		.skin{fill:hsla(2, 100%, 90%, 1);}
		.mouth{fill:hsla(0, 100%, 75%, 1);}
		.pants{fill:hsla(193, 45%, 25%, 1);}
		.shoes{fill:hsla(14, 43%, 42%, 1);}
	</style>

	<svg id="x1_y1" x="" y="0">
		<svg class="shirt" x="6.5" y="10.5">
			<polygon points=".5,0 .5,.5 0,.5 0,3 2.5,3 2.5,.5 2,.5 2,0"/>
		</svg>
		<svg class="pants" x="6.5" y="13.5">
			<rect width="2.5" height="1.5"/>
		</svg>
		<svg class="skin head" x="3.5" y="2">
			<polygon points="0,0 0,2 0,7 1,7 1,8 5,8 5,7 6,7 6,0"/>
			<polygon class="neck" points="3.5,7 3.5,8.5 5,8.5 5,7"/>
		</svg>
		<svg class="eyes" x="4.5" y="6">
			<rect width="1" height="1"/>
		</svg>
		<svg class="hair" x="3.5">
			<polygon points="0,0 0,3 3,3 3,9 4,9 4,6 5,6 5,9 6,9 6,8 7,8 7,3 6,3 6,2 4,2 4,1 2,1 2,0"/>
		</svg>
		<svg class="shoes" x="4.5" y="14">
			<rect x="0" y="0" width="1" height="1"/>
			<rect x="1" y="1" width="1" height="1"/>
			<rect x="3.5" y="1" width="1" height="1"/>
			<rect x="4.5" y="0" width="1" height="1"/>
		</svg>
		<svg class="skin ears" x="7.5" y="7">
			<polygon points="0,0 0,2 1,2 1,0"/>
		</svg>
		<svg class="skin hands" x="8.5" y="13">
			<polygon points="0,.5 0,1 .5,1 .5,.5"/>
		</svg>
	</svg>
	<svg id="x1_y2" x="0" y="16">
		<svg class="shirt" x="7" y="10.5">
			<polygon points=".5,0 .5,.5 0,.5 0,3 2.5,3 2.5,.5 2,.5 2,0"/>
		</svg>
		<svg class="pants" x="7" y="13.5">
			<rect width="2.5" height="1.5"/>
		</svg>
		<svg class="skin head" x="4" y="2">
			<polygon points="0,0 0,2 0,7 1,7 1,8 5,8 5,7 6,7 6,0"/>
			<polygon class="neck" points="3.5,7 3.5,8.5 5,8.5 5,7"/>
		</svg>
		<svg class="eyes" x="5" y="6">
			<rect width="1" height="1"/>
		</svg>
		<svg class="hair" x="4">
			<polygon points="0,0 0,3 3,3 3,9 4,9 4,6 5,6 5,9 6,9 6,8 7,8 7,3 6,3 6,2 4,2 4,1 2,1 2,0"/>
		</svg>
		<svg class="shoes" x="6.5" y="15">
			<rect width="2.5" height="1"/>
		</svg>
		<svg class="skin ears" x="8" y="6">
			<polygon points="0,0 0,2 1,2 1,0"/>
		</svg>
		<svg class="skin hands" x="8" y="13.5">
			<polygon points="0,0 0,.5 .5,.5 .5,0"/>
		</svg>
	</svg>
	<svg id="x1_y3" x="0" y="32">
		<svg class="shirt" x="6.5" y="10.5">
			<polygon points=".5,0 .5,.5 0,.5 0,3 2.5,3 2.5,.5 2,.5 2,0"/>
		</svg>
		<svg class="pants" x="6.5" y="13.5">
			<rect width="2.5" height="1.5"/>
		</svg>
		<svg class="skin head" x="3.5" y="2">
			<polygon points="0,0 0,2 0,7 1,7 1,8 5,8 5,7 6,7 6,0"/>
			<polygon class="neck" points="3.5,7 3.5,8.5 5,8.5 5,7"/>
		</svg>
		<svg class="eyes" x="4.5" y="6">
			<rect width="1" height="1"/>
		</svg>
		<svg class="hair" x="3.5">
			<polygon points="0,0 0,3 3,3 3,9 4,9 4,6 5,6 5,9 6,9 6,8 7,8 7,3 6,3 6,2 4,2 4,1 2,1 2,0"/>
		</svg>
		<svg class="shoes" x="4.5" y="14">
			<rect x="0" y="0" width="1" height="1"/>
			<rect x="1" y="1" width="1" height="1"/>
			<rect x="3.5" y="1" width="1" height="1"/>
			<rect x="4.5" y="0" width="1" height="1"/>
		</svg>
		<svg class="skin ears" x="7.5" y="7">
			<polygon points="0,0 0,2 1,2 1,0"/>
		</svg>
		<svg class="skin hands" x="6.5" y="13">
			<polygon points="0,.5 0,1 .5,1 .5,.5"/>
		</svg>
	</svg>
	<svg id="x1_y4" x="0" y="48">
		<svg class="shirt" x="7" y="10.5">
			<polygon points=".5,0 .5,.5 0,.5 0,3 2.5,3 2.5,.5 2,.5 2,0"/>
		</svg>
		<svg class="pants" x="7" y="13.5">
			<rect width="2.5" height="1.5"/>
		</svg>
		<svg class="skin head" x="4" y="2">
			<polygon points="0,0 0,2 0,7 1,7 1,8 5,8 5,7 6,7 6,0"/>
			<polygon class="neck" points="3.5,7 3.5,8.5 5,8.5 5,7"/>
		</svg>
		<svg class="eyes" x="5" y="6">
			<rect width="1" height="1"/>
		</svg>
		<svg class="hair" x="4">
			<polygon points="0,0 0,3 3,3 3,9 4,9 4,6 5,6 5,9 6,9 6,8 7,8 7,3 6,3 6,2 4,2 4,1 2,1 2,0"/>
		</svg>
		<svg class="shoes" x="6.5" y="15">
			<rect width="2.5" height="1"/>
		</svg>
		<svg class="skin ears" x="8" y="6">
			<polygon points="0,0 0,2 1,2 1,0"/>
		</svg>
		<svg class="skin hands" x="8" y="13.5">
			<polygon points="0,0 0,.5 .5,.5 .5,0"/>
		</svg>
	</svg>
	<svg id="x2_y1" x="16" y="1">
		<svg class="shirt" x="5.5" y="9">
			<polygon points="0,1.5 0,3.5 .5,3.5 4,3.5 4,2.5 4,1.5 3,1.5 3,.5 1,.5 1,1.5"/>
		</svg>
		<svg class="underShirt" x="5" y="10">
			<polygon points="1.75,0 1.75,2.5 3.25,2.5 3.25,0 "/>
		</svg>
		<svg class="pants" x="6" y="12.5">
			<polygon points="0,0 0,1.5 1,1.5 1,.5 2,.5 2,1 3,1 3,0"/>
		</svg>
		<svg class="skin head" x="4.5" y="2">
			<rect x="0" y="0" width="6" height="8"/>
			<polygon points="2.25,7 2.25,8.5 3.75,8.5 3.75,7"/>
		</svg>
		<svg class="skin ears" x="2.5" y="1">
			<polyline points="9,5 9,7 10,7 10,5"/>
			<polyline points="0,5 0,7 1,7 1,5"/>
		</svg>
		<svg class="hair" x="3.5" y="0">
			<polygon points="1,3 0,3 0,9 1,9 1,2 2,2 2,0 5,0 5,1 6,1 6,2 7,2 7,3 8,3 8,9 7,9 7,3 6,3"/>
		</svg>
		<svg class="eyes" x="5" y="6">
			<rect x="0" width="1" height="1"/>
			<rect x="4" width="1" height="1"/>
		</svg>
		<svg class="shoes" x="6" y="13.5">
			<rect class="left shoes" x="0" y=".5" width="1" height="1"/>
			<rect class="right shoes" x="2" y="0" width="1" height="0.5"/>
		</svg>
		<svg class="skin mouth" x="6.5" y="8">
			<rect width="2" height="1"/>
		</svg>
		<svg class="skin hands" x="5.5" y="12">
			<polygon points="0,0 0,.5 .5,.5 .5,0"/>
			<polygon points="3,1 3,0 4,0 4,1"/>
		</svg>
	</svg>
	<svg id="x2_y2" x="16" y="16">
		<svg class="shirt" x="6" y="10">
			<polygon points="0,1 0,3.5 4,3.5 4,2 4,2 4,1 3,1 3,.5 1,.5 1,1"/>
		</svg>
		<svg class="underShirt" x="5.5" y="11">
			<polygon points="1.75,0 1.75,2.5 3.25,2.5 3.25,0 "/>
		</svg>
		<svg class="pants" x="6.5" y="13.5">
			<polygon points="0,0 0,1.5 1,1.5 1,.5 2,.5 2,1.5 3,1.5 3,0"/>
		</svg>
		<svg class="skin head" x="5" y="2">
			<rect x="0" y="0" width="6" height="8"/>
			<polygon points="2.25,7 2.25,9 3.75,9 3.75,7"/>
		</svg>
		<svg class="skin ears" x="3" y="1">
			<polyline points="0,5 0,7 1,7 1,5"/>
			<polyline points="9,5 9,7 10,7 10,5"/>
		</svg>
		<svg class="hair" x="4" y="0">
			<polygon points="1,3 0,3 0,9 1,9 1,2 2,2 2,0 5,0 5,1 6,1 6,2 7,2 7,3 8,3 8,9 7,9 7,3 6,3"/>
		</svg>
		<svg class="eyes" x="5.5" y="6">
			<rect x="0" width="1" height="1"/>
			<rect x="4" width="1" height="1"/>
		</svg>
		<svg class="shoes" x="6.5" y="15">
			<rect x="0" y="0" width="1" height="1"/>
			<rect x="2" y="0" width="1" height="1"/>
		</svg>
		<svg class="skin mouth" x="7" y="8">
			<rect width="2" height="1"/>
		</svg>
		<svg class="skin hands" x="6" y="13.5">
			<polygon points="0,0 0,.5 .5,.5 .5,0"/>
			<polygon points="3.5,0 3.5,.5 4,.5 4,0"/>
		</svg>
	</svg>
	<svg id="x2_y3" x="16" y="32">
		<svg class="shirt" x="6.5" y="10">
			<polygon points="0,1.5 0,3.5 3.5,3.5 4,3.5 4,1.5 3,1.5 3,.5 1,.5 1,1.5"/>
		</svg>
		<svg class="underShirt" x="6" y="11">
			<polygon points="1.75,0 1.75,2.5 3.25,2.5 3.25,0 "/>
		</svg>
		<svg class="pants" x="7" y="13.5">
			<polygon points="0,0 0,1 1,1 1,.5 2,.5 2,1.5 3,1.5 3,0"/>
		</svg>
		<svg class="skin head" x="5.5" y="3">
			<rect x="0" y="0" width="6" height="8"/>
			<polygon points="2.25,7 2.25,8.5 3.75,8.5 3.75,7"/>
		</svg>
		<svg class="skin ears" x="3.5" y="2">
			<polyline points="9,5 9,7 10,7 10,5"/>
			<polyline points="0,5 0,7 1,7 1,5"/>
		</svg>
		<svg class="hair" x="4.5" y="1">
			<polygon points="1,3 0,3 0,9 1,9 1,2 2,2 2,0 5,0 5,1 6,1 6,2 7,2 7,3 8,3 8,9 7,9 7,3 6,3"/>
		</svg>
		<svg class="eyes" x="6" y="7">
			<rect x="0" width="1" height="1"/>
			<rect x="4" width="1" height="1"/>
		</svg>
		<svg class="shoes" x="7" y="14.5">
			<rect class="right shoes" x="2" y=".5" width="1" height="1"/>
			<rect class="left shoes" x="0" y="0" width="1" height="0.5"/>
		</svg>
		<svg class="skin mouth" x="7.5" y="9">
			<rect width="2" height="1"/>
		</svg>
		<svg class="skin hands" x="6.5" y="13">
			<polygon points="0,0 0,1 1,1 1,0"/>
			<polygon points="3.5,0 3.5,.5 4,.5 4,0"/>
		</svg>
	</svg>
	<svg id="x2_y4" x="16" y="48">
		<svg class="shirt" x="6" y="10">
			<polygon points="0,1 0,3.5 4,3.5 4,2 4,2 4,1 3,1 3,.5 1,.5 1,1"/>
		</svg>
		<svg class="underShirt" x="5.5" y="11">
			<polygon points="1.75,0 1.75,2.5 3.25,2.5 3.25,0 "/>
		</svg>
		<svg class="pants" x="6.5" y="13.5">
			<polygon points="0,0 0,1.5 1,1.5 1,.5 2,.5 2,1.5 3,1.5 3,0"/>
		</svg>
		<svg class="skin head" x="5" y="2">
			<rect x="0" y="0" width="6" height="8"/>
			<polygon points="2.25,7 2.25,9 3.75,9 3.75,7"/>
		</svg>
		<svg class="skin ears" x="3" y="1">
			<polyline points="0,5 0,7 1,7 1,5"/>
			<polyline points="9,5 9,7 10,7 10,5"/>
		</svg>
		<svg class="hair" x="4" y="0">
			<polygon points="1,3 0,3 0,9 1,9 1,2 2,2 2,0 5,0 5,1 6,1 6,2 7,2 7,3 8,3 8,9 7,9 7,3 6,3"/>
		</svg>
		<svg class="eyes" x="5.5" y="6">
			<rect x="0" width="1" height="1"/>
			<rect x="4" width="1" height="1"/>
		</svg>
		<svg class="shoes" x="6.5" y="15">
			<rect x="0" y="0" width="1" height="1"/>
			<rect x="2" y="0" width="1" height="1"/>
		</svg>
		<svg class="skin mouth" x="7" y="8">
			<rect width="2" height="1"/>
		</svg>
		<svg class="skin hands" x="6" y="13.5">
			<polygon points="0,0 0,.5 .5,.5 .5,0"/>
			<polygon points="3.5,0 3.5,.5 4,.5 4,0"/>
		</svg>
	</svg>
	<svg id="x3_y1" x="32.5" y="0">
		<svg class="shirt" x="6.5" y="10.5">
			<polygon points=".5,0 .5,.5 0,.5 0,3 2.5,3 2.5,.5 2,.5 2,0"/>
		</svg>
		<svg class="pants" x="6.5" y="13.5">
			<rect x="0" y="0" width="2.5" height="1.5"/>
		</svg>
		<svg class="skin head" x="6" y="2">
			<polygon points="0,0 0,2 0,7 1,7 1,8 5,8 5,7 6,7 6,0"/>
			<polygon class="neck" points="1,7 1,8.5 2.5,8.5 2.5,7"/>
		</svg>
		<svg class="eyes" x="10" y="6">
			<rect width="1" height="1"/>
		</svg>
		<svg class="hair" x="5">
			<polygon points="0,3 0,8 1,8 1,9 2,9 2,6 3,6 3,9 4,9 4,3 7,3 7,0 5,0 5,1 3,1 3,2 1,2 1,3"/>
		</svg>
		<svg class="shoes" x="5.5" y="14">
			<rect width="1" height="1"/>
			<rect x="1" y="1" width="1" height="1"/>
			<rect x="3.5" y="1" width="1" height="1"/>
			<rect x="4.5" y="0" width="1" height="1"/>
		</svg>
		<svg class="skin ears" x="7" y="7">
			<rect width="1" height="2"/>
		</svg>
		<svg class="skin hands" x="6.5" y="13.5">
			<rect width=".5" height=".5"/>
		</svg>
	</svg>
	<svg id="x3_y2" x="32" y="16">
		<svg class="shirt" x="6.5" y="10.5">
			<polygon points=".5,0 .5,.5 0,.5 0,3 2.5,3 2.5,.5 2,.5 2,0"/>
		</svg>
		<svg class="pants" x="6.5" y="13.5">
			<rect width="2.5" height="1.5"/>
		</svg>
		<svg class="skin head" x="6" y="2">
			<polygon points="0,0 0,2 0,7 1,7 1,8 5,8 5,7 6,7 6,0"/>
			<polygon class="neck" points="1,7 1,8.5 2.5,8.5 2.5,7"/>
		</svg>
		<svg class="eyes" x="10" y="6">
			<rect width="1" height="1"/>
		</svg>
		<svg class="hair" x="5">
			<polygon points="0,3 0,8 1,8 1,9 2,9 2,6 3,6 3,9 4,9 4,3 7,3 7,0 5,0 5,1 3,1 3,2 1,2 1,3"/>
		</svg>
		<svg class="shoes" x="7" y="15">
			<rect width="2.5" height="1"/>
		</svg>
		<svg class="skin ears" x="7" y="6">
			<polygon points="0,0 0,2 1,2 1,0"/>
		</svg>
		<svg class="skin hands" x="7.5" y="13.5">
			<polygon points="0,0 0,.5 .5,.5 .5,0"/>
		</svg>
	</svg>
	<svg id="x3_y3" x="32.5" y="32">
		<svg class="shirt" x="6.5" y="10.5">
			<polygon points=".5,0 .5,.5 0,.5 0,3 2.5,3 2.5,.5 2,.5 2,0"/>
		</svg>
		<svg class="pants" x="6.5" y="13.5">
			<rect x="0" y="0" width="2.5" height="1.5"/>
		</svg>
		<svg class="skin head" x="6" y="2">
			<polygon points="0,0 0,2 0,7 1,7 1,8 5,8 5,7 6,7 6,0"/>
			<polygon class="neck" points="1,7 1,8.5 2.5,8.5 2.5,7"/>
		</svg>
		<svg class="eyes" x="10" y="6">
			<rect width="1" height="1"/>
		</svg>
		<svg class="hair" x="5">
			<polygon points="0,3 0,8 1,8 1,9 2,9 2,6 3,6 3,9 4,9 4,3 7,3 7,0 5,0 5,1 3,1 3,2 1,2 1,3"/>
		</svg>
		<svg class="shoes" x="5.5" y="14">
			<rect width="1" height="1"/>
			<rect x="1" y="1" width="1" height="1"/>
			<rect x="3.5" y="1" width="1" height="1"/>
			<rect x="4.5" y="0" width="1" height="1"/>
		</svg>
		<svg class="skin ears" x="7" y="7">
			<rect width="1" height="2"/>
		</svg>
		<svg class="skin hands" x="8.5" y="13.5">
			<rect width=".5" height=".5"/>
		</svg>
	</svg>
	<svg id="x3_y4" x="32" y="48">
		<svg class="shirt" x="6.5" y="10.5">
			<polygon points=".5,0 .5,.5 0,.5 0,3 2.5,3 2.5,.5 2,.5 2,0"/>
		</svg>
		<svg class="pants" x="6.5" y="13.5">
			<rect width="2.5" height="1.5"/>
		</svg>
		<svg class="skin head" x="6" y="2">
			<polygon points="0,0 0,2 0,7 1,7 1,8 5,8 5,7 6,7 6,0"/>
			<polygon class="neck" points="1,7 1,8.5 2.5,8.5 2.5,7"/>
		</svg>
		<svg class="eyes" x="10" y="6">
			<rect width="1" height="1"/>
		</svg>
		<svg class="hair" x="5">
			<polygon points="0,3 0,8 1,8 1,9 2,9 2,6 3,6 3,9 4,9 4,3 7,3 7,0 5,0 5,1 3,1 3,2 1,2 1,3"/>
		</svg>
		<svg class="shoes" x="7" y="15">
			<rect width="2.5" height="1"/>
		</svg>
		<svg class="skin ears" x="7" y="6">
			<polygon points="0,0 0,2 1,2 1,0"/>
		</svg>
		<svg class="skin hands" x="7.5" y="13.5">
			<polygon points="0,0 0,.5 .5,.5 .5,0"/>
		</svg>
	</svg>
	<svg id="x4_y1" x="48" y="0">

		<svg class="pants" x="7" y="13.5">
			<polygon points="0,0 0,1 1,1 1,.5 2,.5 2,1.5 3,1.5 3,0"/>
		</svg>

		<svg class="skin head" x="5.5" y="3">
			<rect x="0" y="0" width="6" height="8"/>
			<polygon points="2.25,7 2.25,8.5 3.75,8.5 3.75,7"/>
		</svg>
		<svg class="skin ears" x="3.5" y="2">
			<polyline points="9,5 9,7 10,7 10,5"/>
			<polyline points="0,5 0,7 1,7 1,5"/>
		</svg>
		<svg class="hair" x="4.5" y="1">
			<polyline class="hair new" points="0,3 0,8.5 1,8.5 1,9.5 7,9.5 7,8.5 8,8.5 8,3 7,3 7,2 6,2 6,0 3,0 3,1 2,1 2,2 1,2 1,3"/>
		</svg>
		<svg class="shirt" x="6.5" y="10">
			<polygon points="0,1.5 0,3.5 3.5,3.5 4,3.5 4,1.5 3,1.5 3,1 1,1 1,1.5"/>
		</svg>

		<svg class="shoes" x="7" y="14.5">
			<rect class="right shoes" x="2" y=".5" width="1" height="1"/>
			<rect class="left shoes" x="0" y="0" width="1" height="0.5"/>
		</svg>

		<svg class="skin hands" x="6.5" y="13">
			<rect x="3" width="1" height="1"/>
			<rect width=".5" height=".5"/>
		</svg>
	</svg>
	<svg id="x4_y2" x="48" y="16">
		<svg class="skin head" x="5" y="2">
			<rect x="0" y="0" width="6" height="8"/>
			<polygon points="2.25,7 2.25,9 3.75,9 3.75,7"/>
		</svg>
		<svg class="hair" x="4" y="0">
			<polyline class="hair new" points="0,3 0,8.5 1,8.5 1,9.5 7,9.5 7,8.5 8,8.5 8,3 7,3 7,2 6,2 6,0 3,0 3,1 2,1 2,2 1,2 1,3"/>
		</svg>
		<svg class="shirt" x="6" y="10">
			<polygon points="0,1 0,3.5 4,3.5 4,2 4,2 4,1 3,1 3,.5 1,.5 1,1"/>
		</svg>
		<svg class="pants" x="6.5" y="13.5">
			<polygon points="0,0 0,1.5 1,1.5 1,.5 2,.5 2,1.5 3,1.5 3,0"/>
		</svg>

		<svg class="shoes" x="6.5" y="15">
			<rect x="0" y="0" width="1" height="1"/>
			<rect x="2" y="0" width="1" height="1"/>
		</svg>
		<svg class="skin ears" x="3" y="2">
			<rect y="4" width="1" height="2"/>
			<rect x="9" y="4" width="1" height="2"/>
		</svg>
		<svg class="skin hands" x="6" y="13.5">
			<rect width=".5" height=".5"/>
			<rect x="3.5" width=".5" height=".5"/>
		</svg>
	</svg>
	<svg id="x4_y3" x="48" y="32">
		<svg class="skin head" x="4.5" y="3">
			<rect x="0" y="0" width="6" height="8"/>
			<polygon points="2.25,7 2.25,9 3.75,9 3.75,7"/>
		</svg>
		<svg class="shirt" x="5.5" y="10">
			<polygon points="0,1.5 0,3.5 .5,3.5 3.5,3.5 3.5,3 4,3 4,2.5 4,1.5 3,1.5 3,1 1,1 1,1.5"/>
		</svg>
		<svg class="hair" x="3.5" y="1">
			<polyline class="hair new" points="0,3 0,8.5 1,8.5 1,9.5 7,9.5 7,8.5 8,8.5 8,3 7,3 7,2 6,2 6,0 3,0 3,1 2,1 2,2 1,2 1,3"/>
		</svg>
		<svg class="pants" x="6" y="13.5">
			<polygon points="0,0 0,1.5 1,1.5 1,.5 2,.5 2,1 3,1 3,0"/>
		</svg>

		<svg class="shoes" x="6" y="14.5">
			<rect class="left shoes" x="0" y=".5" width="1" height="1"/>
			<rect class="right shoes" x="2" y="0" width="1" height="0.5"/>
		</svg>
		<svg class="skin ears" x="2.5" y="7">
			<rect x="0" width="1" height="2"/>
			<rect x="9" width="1" height="2"/>
		</svg>
		<svg class="skin hands" x="5.5" y="13">
			<rect width="1" height="1"/>
			<rect x="3.5" width=".5" height=".5"/>
		</svg>
	</svg>
	<svg id="x4_y4" x="48" y="48">
		<svg class="skin head" x="5" y="2">
			<rect x="0" y="0" width="6" height="8"/>
			<polygon points="2.25,7 2.25,9 3.75,9 3.75,7"/>
		</svg>
		<svg class="hair" x="4" y="0">
			<polyline class="hair new" points="0,3 0,8.5 1,8.5 1,9.5 7,9.5 7,8.5 8,8.5 8,3 7,3 7,2 6,2 6,0 3,0 3,1 2,1 2,2 1,2 1,3"/>
		</svg>
		<svg class="shirt" x="6" y="10">
			<polygon points="0,1 0,3.5 4,3.5 4,2 4,2 4,1 3,1 3,.5 1,.5 1,1"/>
		</svg>
		<svg class="pants" x="6.5" y="13.5">
			<polygon points="0,0 0,1.5 1,1.5 1,.5 2,.5 2,1.5 3,1.5 3,0"/>
		</svg>

		<svg class="shoes" x="6.5" y="15">
			<rect x="0" y="0" width="1" height="1"/>
			<rect x="2" y="0" width="1" height="1"/>
		</svg>
		<svg class="skin ears" x="3" y="2">
			<rect y="4" width="1" height="2"/>
			<rect x="9" y="4" width="1" height="2"/>
		</svg>
		<svg class="skin hands" x="6" y="13.5">
			<rect width=".5" height=".5"/>
			<rect x="3.5" width=".5" height=".5"/>
		</svg>
	</svg>

</svg>