<?xml version="1.0" encoding="iso-8859-1"?>
<!DOCTYPE svg PUBLIC "-//W3C//DTD SVG 1.1//EN" "http://www.w3.org/Graphics/SVG/1.1/DTD/svg11.dtd">
<svg version="1.1" id="Jessie" xmlns="http://www.w3.org/2000/svg" xmlns:xlink="http://www.w3.org/1999/xlink" x="0px" y="0px"
	 viewBox="0 0 64 64" xml:space="preserve">

	<style type="text/css">
		.underShirt{fill:#fff;}
		.shirt{fill:#36dde2;}
		.hair{fill:#efe18f;}
		.skin{fill:#ffcecc;}
		.mouth{fill:#ff8080;}
		.pants{fill:#23505c;}
		.shoes{fill:#8a5128;}
		.lenses{fill:#fff;}
		.shadow{fill:rgba(3,84,124,0.5);}
	</style>

			<svg id="x1_y1" x="" y="0">
				<svg class="shirt" x="6.5" y="10.5">
					<polygon points=".5,0 .5,.5 0,.5 0,3 2.5,3 2.5,.5 2,.5 2,0"/>
				</svg>
				<svg class="pants" x="6.5" y="13.5">
					<rect width="2.5" height="1.5"/>
				</svg>
				<svg class="skin head" x="3.5" y="2">
					<polygon points="0,0 0,2 0,7 1,7 1,8 5,8 5,7 6,7 6,0"/>
					<polygon class="neck" points="3.5,7 3.5,8.5 5,8.5 5,7"/>
				</svg>
				<svg class="eyes" x="4.5" y="6">
					<rect width="1" height="1"/>
				</svg>
				<svg class="hair front" x="3.5" y="2">
					<polygon points="4,8 7,6.5 7,1 6,1 6,0 0,0 0,2 3,1 3,3 4.5,4 5,4 5,5"/>
				</svg>
				<svg class="hair " x="4.5" y="2">
					<polygon x="1" points="3,9 6,8 6,1"/>
				</svg>
				<svg class="shoes" x="4.5" y="14">
					<rect x="0" y="0" width="1" height="1"/>
					<rect x="1" y="1" width="1" height="1"/>
					<rect x="3.5" y="1" width="1" height="1"/>
					<rect x="4.5" y="0" width="1" height="1"/>
				</svg>
				<svg class="skin ears" x="7.5" y="6">
					<polygon points="0,0 0,2 1,2 1,0"/>
				</svg>
				<svg class="skin hands" x="8.5" y="13">
					<polygon points="0,.5 0,1 .5,1 .5,.5"/>
				</svg>
			</svg>

			<svg id="x1_y2" x="0" y="16">
				<svg class="shirt" x="7" y="10.5">
					<polygon points=".5,0 .5,.5 0,.5 0,3 2.5,3 2.5,.5 2,.5 2,0"/>
				</svg>
				<svg class="pants" x="7" y="13.5">
					<rect width="2.5" height="1.5"/>
				</svg>
				<svg class="skin head" x="4" y="2">
					<polygon points="0,0 0,2 0,7 1,7 1,8 5,8 5,7 6,7 6,0"/>
					<polygon class="neck" points="3.5,7 3.5,8.5 5,8.5 5,7"/>
				</svg>
				<svg class="eyes" x="5" y="6">
					<rect width="1" height="1"/>
				</svg>
				<svg class="hair front" x="4" y="2">
					<polygon points="4,8 7,6.5 7,1 6,1 6,0 0,0 0,2 3,1 3,3 4.5,4 5,4 5,5"/>
				</svg>
				<svg class="hair " x="5" y="2">
					<polygon x="1" points="3,9 6,8 6,1"/>
				</svg>
				<svg class="shoes" x="6.5" y="15">
					<rect width="2.5" height="1"/>
				</svg>
				<svg class="skin ears" x="8" y="6">
					<polygon points="0,0 0,2 1,2 1,0"/>
				</svg>
				<svg class="skin hands" x="8" y="13.5">
					<polygon points="0,0 0,.5 .5,.5 .5,0"/>
				</svg>
			</svg>

			<svg id="x1_y3" x="0" y="32">
				<svg class="shirt" x="6.5" y="10.5">
					<polygon points=".5,0 .5,.5 0,.5 0,3 2.5,3 2.5,.5 2,.5 2,0"/>
				</svg>
				<svg class="pants" x="6.5" y="13.5">
					<rect width="2.5" height="1.5"/>
				</svg>
				<svg class="skin head" x="3.5" y="2">
					<polygon points="0,0 0,2 0,7 1,7 1,8 5,8 5,7 6,7 6,0"/>
					<polygon class="neck" points="3.5,7 3.5,8.5 5,8.5 5,7"/>
				</svg>
				<svg class="eyes" x="4.5" y="6">
					<rect width="1" height="1"/>
				</svg>
				<svg class="hair front" x="3.5" y="2">
					<polygon points="4,8 7,6.5 7,1 6,1 6,0 0,0 0,2 3,1 3,3 4.5,4 5,4 5,5"/>
				</svg>
				<svg class="hair " x="4.5" y="2">
					<polygon x="1" points="3,9 6,8 6,1"/>
				</svg>
				<svg class="shoes" x="4.5" y="14">
					<rect x="0" y="0" width="1" height="1"/>
					<rect x="1" y="1" width="1" height="1"/>
					<rect x="3.5" y="1" width="1" height="1"/>
					<rect x="4.5" y="0" width="1" height="1"/>
				</svg>
				<svg class="skin ears" x="7.5" y="7">
					<polygon points="0,0 0,2 1,2 1,0"/>
				</svg>
				<svg class="skin hands" x="6.5" y="13">
					<polygon points="0,.5 0,1 .5,1 .5,.5"/>
				</svg>
			</svg>

			<svg id="x1_y4" x="0" y="48">
				<svg class="shirt" x="7" y="10.5">
					<polygon points=".5,0 .5,.5 0,.5 0,3 2.5,3 2.5,.5 2,.5 2,0"/>
				</svg>
				<svg class="pants" x="7" y="13.5">
					<rect width="2.5" height="1.5"/>
				</svg>
				<svg class="skin head" x="4" y="2">
					<polygon points="0,0 0,2 0,7 1,7 1,8 5,8 5,7 6,7 6,0"/>
					<polygon class="neck" points="3.5,7 3.5,8.5 5,8.5 5,7"/>
				</svg>
				<svg class="eyes" x="5" y="6">
					<rect width="1" height="1"/>
				</svg>
				<svg class="hair front" x="4" y="2">
					<polygon points="4,8 7,6.5 7,1 6,1 6,0 0,0 0,2 3,1 3,3 4.5,4 5,4 5,5"/>
				</svg>
				<svg class="hair" x="5" y="2">
					<polygon x="1" points="3,9 6,8 6,1"/>
				</svg>
				<svg class="shoes" x="6.5" y="15">
					<rect width="2.5" height="1"/>
				</svg>
				<svg class="skin ears" x="8" y="6">
					<polygon points="0,0 0,2 1,2 1,0"/>
				</svg>
				<svg class="skin hands" x="8" y="13.5">
					<polygon points="0,0 0,.5 .5,.5 .5,0"/>
				</svg>
			</svg>

			<svg id="x2_y1" x="16" y="1">
				<svg class="pants" x="6" y="12.5">
					<polygon points="0,0 0,1.5 1,1.5 1,.5 2,.5 2,1 3,1 3,0"/>
				</svg>
				<svg class="hair back" x="3.5" y="0">
					<polygon points="1,3 0,3 0,10.5 .5,10 .5,10.5 7.5,11 7.5,10 8,10.5 8,3"/>
				</svg>
				<svg class="shirt" x="5.5" y="9">
					<polygon points="0,1.5 0,3.5 .5,3.5 4,3.5 4,2.5 4,1.5 3,1.5 3,.5 1,.5 1,1.5"/>
				</svg>
				<svg class="underShirt" x="5" y="10">
					<polygon points="1.75,0 1.75,2.5 3.25,2.5 3.25,0 "/>
				</svg>
				<svg class="skin head" x="4.5" y="2">
					<rect x="0" y="0" width="6" height="8"/>
					<polygon points="2.25,7 2.25,8.5 3.75,8.5 3.75,7"/>
				</svg>
				<svg class="skin ears" x="3.5" y="1">
					<polyline points="7,5 7,7 8,7 8,5"/>
					<polyline points="0,5 0,7 1,7 1,5"/>
				</svg>
				<svg class="hair front" x="3.5" y="1">
					<polygon points="1,1 1,2 5,4 8,6 8,2 7,2 7,1 6,1 2,1"/>
				</svg>
				<svg class="eyes" x="5" y="6">
					<rect x="0" width="1" height="1"/>
					<rect x="4" width="1" height="1"/>
				</svg>
				<svg class="shoes" x="6" y="13.5">
					<rect class="left shoes" x="0" y=".5" width="1" height="1"/>
					<rect class="right shoes" x="2" y="0" width="1" height="0.5"/>
				</svg>
				<svg class="skin mouth" x="6" y="8">
					<polygon points="0,0 .5,1 2.5,1 3,0"/>
				</svg>
				<svg class="skin hands" x="5.5" y="12">
					<polygon points="0,0 0,.5 .5,.5 .5,0"/>
					<polygon points="3,1 3,0 4,0 4,1"/>
				</svg>
			</svg>

			<svg id="x2_y2" x="16" y="16">
				<svg class="pants" x="6.5" y="13.5">
					<polygon points="0,0 0,1.5 1,1.5 1,.5 2,.5 2,1.5 3,1.5 3,0"/>
				</svg>
				<svg class="hair back" x="4" y="0">
					<polygon points="1,3 0,3 0,10.5 .5,10 .5,10.5 7.5,11 7.5,10 8,10.5 8,3"/>
				</svg>
				<svg class="shirt" x="6" y="10">
					<polygon points="0,1.75 0,3.5 4,3.5 4,2 4,2 4,1.75 3,1 3,.5 1,.5 1,1"/>
				</svg>
				<svg class="underShirt" x="5.5" y="11">
					<polygon points="1.75,0 1.75,2.5 3.25,2.5 3.25,0 "/>
				</svg>
				<svg class="skin head" x="5" y="2">
					<rect x="0" y="0" width="6" height="8"/>
					<polygon points="2.25,7 2.25,9 3.75,9 3.75,7"/>
				</svg>
				<svg class="skin" x="4" y="1">
					<polyline points="0,5 0,7 1,7 1,5"/>
					<polyline points="7,5 7,7 8,7 8,5"/>
				</svg>
				<svg class="hair front" x="4" y="1">
					<polygon points="1,1 1,2 5,4 8,6 8,2 7,2 7,1 6,1 2,1"/>
				</svg>
				<svg class="eyes" x="5.5" y="6">
					<rect x="0" width="1" height="1"/>
					<rect x="4" width="1" height="1"/>
				</svg>
				<svg class="shoes" x="6.5" y="15">
					<rect x="" y="0" width="1" height="1"/>
					<rect x="2" y="0" width="1" height="1"/>
				</svg>
				<svg class="skin mouth" x="6.5" y="8">
					<polygon points="0,0 .5,1 2.5,1 3,0"/>
				</svg>
				<svg class="skin hands" x="6" y="13.5">
					<polygon points="0,0 0,.5 .5,.5 .5,0"/>
					<polygon points="3.5,0 3.5,.5 4,.5 4,0"/>
				</svg>
			</svg>

			<svg id="x2_y3" x="16" y="32">
				<svg class="pants" x="7" y="13.5">
					<polygon points="0,0 0,1 1,1 1,.5 2,.5 2,1.5 3,1.5 3,0"/>
				</svg>
				<svg class="hair back" x="4.5" y="1">
					<polygon points="1,3 0,3 0,10.5 .5,10 .5,10.5 7.5,11 7.5,10 8,10.5 8,3"/>
				</svg>
				<svg class="shirt" x="6.5" y="10">
					<polygon points="0,1.5 0,3.5 3.5,3.5 4,3.5 4,1.5 3,1.5 3,.5 1,.5 1,1.5"/>
				</svg>
				<svg class="underShirt" x="6" y="11">
					<polygon points="1.75,0 1.75,2.5 3.25,2.5 3.25,0 "/>
				</svg>
				<svg class="skin head" x="5.5" y="3">
					<rect x="0" y="0" width="6" height="8"/>
					<polygon points="2.25,7 2.25,8.5 3.75,8.5 3.75,7"/>
				</svg>
				<svg class="skin ears" x="4.5" y="2">
					<polyline points="7,5 7,7 8,7 8,5"/>
					<polyline points="0,5 0,7 1,7 1,5"/>
				</svg>
				<svg class="hair front" x="4.5" y="2">
					<polygon points="1,1 1,2 5,4 8,6 8,2 7,2 7,1 6,1 2,1"/>
				</svg>
				<svg class="eyes" x="6" y="7">
					<rect x="0" width="1" height="1"/>
					<rect x="4" width="1" height="1"/>
				</svg>
				<svg class="shoes" x="7" y="14.5">
					<rect class="right shoes" x="2" y=".5" width="1" height="1"/>
					<rect class="left shoes" x="0" y="0" width="1" height="0.5"/>
				</svg>
				<svg class="skin mouth" x="7" y="9">
					<polygon points="0,0 .5,1 2.5,1 3,0"/>
				</svg>
				<svg class="skin hands" x="6.5" y="13">
					<polygon points="0,0 0,1 1,1 1,0"/>
					<polygon points="3.5,0 3.5,.5 4,.5 4,0"/>
				</svg>
			</svg>

			<svg id="x2_y4" x="16" y="48">
				<svg class="pants" x="6.5" y="13.5">
					<polygon points="0,0 0,1.5 1,1.5 1,.5 2,.5 2,1.5 3,1.5 3,0"/>
				</svg>
				<svg class="hair back" x="4" y="0">
					<polygon points="1,3 0,3 0,10.5 .5,10 .5,10.5 7.5,11 7.5,10 8,10.5 8,3"/>
				</svg>
				<svg class="shirt" x="6" y="10">
					<polygon points="0,1.75 0,3.5 4,3.5 4,2 4,2 4,1.75 3,1 3,.5 1,.5 1,1"/>
				</svg>
				<svg class="underShirt" x="5.5" y="11">
					<polygon points="1.75,0 1.75,2.5 3.25,2.5 3.25,0 "/>
				</svg>
				<svg class="skin head" x="5" y="2">
					<rect x="0" y="0" width="6" height="8"/>
					<polygon points="2.25,7 2.25,9 3.75,9 3.75,7"/>
				</svg>
				<svg class="skin ears" x="4" y="1">
					<polyline points="0,5 0,7 1,7 1,5"/>
					<polyline points="7,5 7,7 8,7 8,5"/>
				</svg>
				<svg class="hair front" x="4" y="1">
					<polygon points="1,1 1,2 5,4 8,6 8,2 7,2 7,1 6,1 2,1"/>
				</svg>
				<svg class="eyes" x="5.5" y="6">
					<rect x="0" width="1" height="1"/>
					<rect x="4" width="1" height="1"/>
				</svg>
				<svg class="shoes" x="6.5" y="15">
					<rect x="0" y="0" width="1" height="1"/>
					<rect x="2" y="0" width="1" height="1"/>
				</svg>
				<svg class="skin mouth" x="6.5" y="8">
					<polygon points="0,0 .5,1 2.5,1 3,0"/>
				</svg>
				<svg class="skin hands" x="6" y="13.5">
					<polygon points="0,0 0,.5 .5,.5 .5,0"/>
					<polygon points="3.5,0 3.5,.5 4,.5 4,0"/>
				</svg>
			</svg>

			<svg id="x3_y1" x="32.5" y="0">
				<svg class="hair back" x="5" y="2">
					<polygon points="0,1 0,8 3,9"/>
				</svg>
				<svg class="shirt" x="6.5" y="10.5">
					<polygon points=".5,0 .5,.5 0,.5 0,3 2.5,3 2.5,.5 2,.5 2,0"/>
				</svg>
				<svg class="pants" x="6.5" y="13.5">
					<rect x="0" y="0" width="2.5" height="1.5"/>
				</svg>
				<svg class="skin head" x="6" y="2">
					<polygon points="0,0 0,2 0,7 1,7 1,8 5,8 5,7 6,7 6,0"/>
					<polygon class="neck" points="1,7 1,8.5 2.5,8.5 2.5,7"/>
				</svg>
				<svg class="eyes" x="10" y="6">
					<rect width="1" height="1"/>
				</svg>
				<svg class="hair front" x="5" y="2">
					<polygon points="0,1 0,6.5 3,8 2,5 2,4 2.5,4 4,3 4,1 7,2.5 7,0 1,0 1,1"/>
				</svg>
				<svg class="shoes" x="5.5" y="14">
					<rect width="1" height="1"/>
					<rect x="1" y="1" width="1" height="1"/>
					<rect x="3.5" y="1" width="1" height="1"/>
					<rect x="4.5" y="0" width="1" height="1"/>
				</svg>
				<svg class="skin ears" x="7" y="6">
					<rect width="1" height="2"/>
				</svg>
				<svg class="skin hands" x="6.5" y="13.5">
					<rect width=".5" height=".5"/>
				</svg>
			</svg>

			<svg id="x3_y2" x="32" y="16">
				<svg class="hair back" x="5" y="2">
					<polygon points="0,1 0,8 3,9"/>
				</svg>
				<svg class="shirt" x="6.5" y="10.5">
					<polygon points=".5,0 .5,.5 0,.5 0,3 2.5,3 2.5,.5 2,.5 2,0"/>
				</svg>
				<svg class="pants" x="6.5" y="13.5">
					<rect width="2.5" height="1.5"/>
				</svg>
				<svg class="skin head" x="6" y="2">
					<polygon points="0,0 0,2 0,7 1,7 1,8 5,8 5,7 6,7 6,0"/>
					<polygon class="neck" points="1,7 1,8.5 2.5,8.5 2.5,7"/>
				</svg>
				<svg class="eyes" x="10" y="6">
					<rect width="1" height="1"/>
				</svg>
				<svg class="hair" x="5" y="2">
					<polygon points="0,1 0,6.5 3,8 2,5 2,4 2.5,4 4,3 4,1 7,2.5 7,0 1,0 1,1"/>
				</svg>
				<svg class="shoes" x="7" y="15">
					<rect width="2.5" height="1"/>
				</svg>
				<svg class="skin ears" x="7" y="6">
					<polygon points="0,0 0,2 1,2 1,0"/>
				</svg>
				<svg class="skin hands" x="7.5" y="13.5">
					<polygon points="0,0 0,.5 .5,.5 .5,0"/>
				</svg>
			</svg>

			<svg id="x3_y3" x="32.5" y="32">
				<svg class="hair back" x="5" y="2">
					<polygon points="0,1 0,8 3,9"/>
				</svg>
				<svg class="shirt" x="6.5" y="10.5">
					<polygon points=".5,0 .5,.5 0,.5 0,3 2.5,3 2.5,.5 2,.5 2,0"/>
				</svg>
				<svg class="pants" x="6.5" y="13.5">
					<rect x="0" y="0" width="2.5" height="1.5"/>
				</svg>
				<svg class="skin head" x="6" y="2">
					<polygon points="0,0 0,2 0,7 1,7 1,8 5,8 5,7 6,7 6,0"/>
					<polygon class="neck" points="1,7 1,8.5 2.5,8.5 2.5,7"/>
				</svg>
				<svg class="eyes" x="10" y="6">
					<rect width="1" height="1"/>
				</svg>
				<svg class="hair" x="5" y="2">
					<polygon points="0,1 0,6.5 3,8 2,5 2,4 2.5,4 4,3 4,1 7,2.5 7,0 1,0 1,1"/>
				</svg>
				<svg class="shoes" x="5.5" y="14">
					<rect width="1" height="1"/>
					<rect x="1" y="1" width="1" height="1"/>
					<rect x="3.5" y="1" width="1" height="1"/>
					<rect x="4.5" y="0" width="1" height="1"/>
				</svg>
				<svg class="skin ears" x="7" y="6">
					<rect width="1" height="2"/>
				</svg>
				<svg class="skin hands" x="8.5" y="13.5">
					<rect width=".5" height=".5"/>
				</svg>
			</svg>

			<svg id="x3_y4" x="32" y="48">
				<svg class="hair back" x="5" y="2">
					<polygon points="0,1 0,8 3,9"/>
				</svg>
				<svg class="shirt" x="6.5" y="10.5">
					<polygon points=".5,0 .5,.5 0,.5 0,3 2.5,3 2.5,.5 2,.5 2,0"/>
				</svg>
				<svg class="pants" x="6.5" y="13.5">
					<rect width="2.5" height="1.5"/>
				</svg>
				<svg class="skin head" x="6" y="2">
					<polygon points="0,0 0,2 0,7 1,7 1,8 5,8 5,7 6,7 6,0"/>
					<polygon class="neck" points="1,7 1,8.5 2.5,8.5 2.5,7"/>
				</svg>
				<svg class="eyes" x="10" y="6">
					<rect width="1" height="1"/>
				</svg>
				<svg class="hair" x="5" y="2">
					<polygon points="0,1 0,6.5 3,8 2,5 2,4 2.5,4 4,3 4,1 7,2.5 7,0 1,0 1,1"/>
				</svg>
				<svg class="shoes" x="7" y="15">
					<rect width="2.5" height="1"/>
				</svg>
				<svg class="skin ears" x="7" y="6">
					<polygon points="0,0 0,2 1,2 1,0"/>
				</svg>
				<svg class="skin hands" x="7.5" y="13.5">
					<polygon points="0,0 0,.5 .5,.5 .5,0"/>
				</svg>
			</svg>

			<svg id="x4_y1" x="48" y="0">
				<svg class="pants" x="7" y="13.5">
					<polygon points="0,0 0,1 1,1 1,.5 2,.5 2,1.5 3,1.5 3,0"/>
				</svg>

				<svg class="skin head" x="5.5" y="3">
					<rect x="0" y="0" width="6" height="8"/>
					<polygon points="2.25,7 2.25,8.5 3.75,8.5 3.75,7"/>
				</svg>
				<svg class="shirt" x="6.5" y="10">
					<polygon points="0,1.5 0,3.5 3.5,3.5 4,3.5 4,1.5 3,1.5 3,1 1,1 1,1.5"/>
				</svg>
				<svg class="hair" x="4.5" y="3">
					<polyline class="hair" points="0,1 0,8.5 .5,8 .5,9 7.5,8.5 7.5,8.5 7.5,8 8,8.5 8,1 7,1 7,0 1,0 1,1"/>
				</svg>

				<svg class="shoes" x="7" y="14.5">
					<rect class="right shoes" x="2" y=".5" width="1" height="1"/>
					<rect class="left shoes" x="0" y="0" width="1" height="0.5"/>
				</svg>

				<svg class="skin hands" x="6.5" y="13">
					<rect x="3" width="1" height="1"/>
					<rect width=".5" height=".5"/>
				</svg>
			</svg>

			<svg id="x4_y2" x="48" y="16">
				<svg class="skin head" x="5" y="2">
					<rect x="0" y="0" width="6" height="8"/>
					<polygon points="2.25,7 2.25,9 3.75,9 3.75,7"/>
				</svg>
				<svg class="shirt" x="6" y="10">
					<polygon points="0,1.75 0,3.5 4,3.5 4,2 4,2 4,1.75 3,1 3,.5 1,.5 1,1"/>
				</svg>
				<svg class="pants" x="6.5" y="13.5">
					<polygon points="0,0 0,1.5 1,1.5 1,.5 2,.5 2,1.5 3,1.5 3,0"/>
				</svg>
				<svg class="hair" x="4" y="2">
					<polyline class="hair" points="0,1 0,8.5 .5,8 .5,9 7.5,8.5 7.5,8.5 7.5,8 8,8.5 8,1 7,1 7,0 1,0 1,1"/>
				</svg>

				<svg class="shoes" x="6.5" y="15">
					<rect x="0" y="0" width="1" height="1"/>
					<rect x="2" y="0" width="1" height="1"/>
				</svg>
				<svg class="skin hands" x="6" y="13.5">
					<rect width=".5" height=".5"/>
					<rect x="3.5" width=".5" height=".5"/>
				</svg>
			</svg>

			<svg id="x4_y3" x="48" y="32">
				<svg class="skin head" x="4.5" y="3">
					<rect x="0" y="0" width="6" height="8"/>
					<polygon points="2.25,7 2.25,9 3.75,9 3.75,7"/>
				</svg>
				<svg class="shirt" x="5.5" y="10">
					<polygon points="0,1.5 0,3.5 .5,3.5 3.5,3.5 3.5,3 4,3 4,2.5 4,1.5 3,1.5 3,1 1,1 1,1.5"/>
				</svg>
				<svg class="hair" x="3.5" y="3">
					<polyline class="hair" points="0,1 0,8.5 .5,8 .5,9 7.5,8.5 7.5,8.5 7.5,8 8,8.5 8,1 7,1 7,0 1,0 1,1"/>
				</svg>
				<svg class="pants" x="6" y="13.5">
					<polygon points="0,0 0,1.5 1,1.5 1,.5 2,.5 2,1 3,1 3,0"/>
				</svg>

				<svg class="shoes" x="6" y="14.5">
					<rect class="left shoes" x="0" y=".5" width="1" height="1"/>
					<rect class="right shoes" x="2" y="0" width="1" height="0.5"/>
				</svg>
				<svg class="skin hands" x="5.5" y="13">
					<rect width="1" height="1"/>
					<rect x="3.5" width=".5" height=".5"/>
				</svg>
			</svg>

			<svg id="x4_y4" x="48" y="48">
				<svg class="skin head" x="5" y="2">
					<rect x="0" y="0" width="6" height="8"/>
					<polygon points="2.25,7 2.25,9 3.75,9 3.75,7"/>
				</svg>
				<svg class="shirt" x="6" y="10">
					<polygon points="0,1.75 0,3.5 4,3.5 4,2 4,2 4,1.75 3,1 3,.5 1,.5 1,1"/>
				</svg>
				<svg class="hair" x="4" y="2">
					<polyline class="hair" points="0,1 0,8.5 .5,8 .5,9 7.5,8.5 7.5,8.5 7.5,8 8,8.5 8,1 7,1 7,0 1,0 1,1"/>
				</svg>
				<svg class="pants" x="6.5" y="13.5">
					<polygon points="0,0 0,1.5 1,1.5 1,.5 2,.5 2,1.5 3,1.5 3,0"/>
				</svg>

				<svg class="shoes" x="6.5" y="15">
					<rect x="0" y="0" width="1" height="1"/>
					<rect x="2" y="0" width="1" height="1"/>
				</svg>
				<svg class="skin hands" x="6" y="13.5">
					<rect width=".5" height=".5"/>
					<rect x="3.5" width=".5" height=".5"/>
				</svg>
			</svg>
</svg>